<?xml version="1.0" standalone="no"?>
<!DOCTYPE svg PUBLIC "-//W3C//DTD SVG 1.1//EN" "http://www.w3.org/Graphics/SVG/1.1/DTD/svg11.dtd" >
<svg xmlns="http://www.w3.org/2000/svg">
<metadata>
<json>
<![CDATA[
{
	"fontFamily": "Thi-Webfont",
	"majorVersion": 2,
	"minorVersion": 7,
	"designer": "Ali Yarahmadi",
	"version": "Version 2.7",
	"fontId": "Thi-Webfont",
	"psName": "Thi-Webfont",
	"subFamily": "Regular",
	"fullName": "Thi-Webfont",
	"description": "Font generated by IcoMoon."
}
]]>
</json>
</metadata>
<defs>
<font id="Thi-Webfont" horiz-adv-x="1024">
<font-face units-per-em="1024" ascent="960" descent="-64" />
<missing-glyph horiz-adv-x="1024" />
<glyph unicode="&#x20;" horiz-adv-x="512" d="" />
<glyph unicode="&#xe900;" glyph-name="addon-chrome" data-tags="addon-chrome" d="M1004.373 654.080c-49.067 219.733-197.547 305.92-492.373 305.92-191.147 0-321.28-36.267-402.347-122.027l199.68-345.6c13.653 59.733 52.48 110.507 106.667 139.52 47.787 20.053 99.84 28.16 151.467 22.187h436.907zM358.4 448v0c0 84.907 68.693 153.6 153.6 153.6s153.6-68.693 153.6-153.6c0-84.907-68.693-153.6-153.6-153.6s-153.6 68.693-153.6 153.6zM571.307 247.040c-93.44-28.587-194.56 12.373-241.92 98.133l-256.427 445.013c-50.773-80.213-72.96-192.427-72.96-342.187 0-329.813 107.947-476.587 391.253-506.027l180.48 305.067zM1024 447.573c0.427 51.2-2.987 101.973-9.813 152.32h-359.68c71.253-66.56 87.467-173.653 38.827-258.133-29.44-50.347-159.147-270.507-239.787-405.76h58.453c372.48 0 512 139.52 512 512z" />
<glyph unicode="&#xe901;" glyph-name="addon-firefox" data-tags="addon-firefox" d="M355.84 741.973c3.84 33.707 26.88 77.653 69.547 98.133-64.427 9.813-116.907-20.053-142.933-58.453-41.387 8.96-66.987 9.387-108.373 1.707-26.453 20.053-57.6 64.853-55.040 112.213-49.92-58.453-60.16-102.4-54.187-154.88-192.427-340.907 66.56-750.933 435.2-750.933 331.093 0 523.52 251.307 523.52 508.587 0 173.653-79.36 324.267-160 356.693 30.293-32.853 64.427-119.040 58.027-178.347-65.28 168.533-228.267 233.813-283.307 230.4 180.48-69.973 224-307.627 207.787-377.6-15.787 82.347-65.707 153.173-96 171.947 174.933-406.187-247.467-531.2-376.32-389.973 33.28-8.533 98.987-4.267 148.053 28.16 46.080 30.72 50.347 32.427 79.787 34.56 34.987 2.56-2.133 71.253-78.933 59.733-31.573-4.693-83.627-41.387-147.627-17.493-77.227 29.44-74.667 133.547 5.12 102.4 17.067 22.187 4.693 64 4.693 64 23.040 20.907 52.48 35.84 69.973 46.080 11.52 6.827 42.24 25.6 40.533 62.293-6.4 4.693-16.213 11.093-39.253 9.813-88.747-5.547-94.72 26.453-100.693 40.96z" />
<glyph unicode="&#xe902;" glyph-name="about-call" data-tags="about-call" d="M829.444-40.96c-3.413 0-7.253 0-11.093 0.427-138.24 14.933-271.787 62.72-387.84 137.813-107.52 68.267-200.534 161.28-268.8 268.8-75.093 116.053-122.88 250.454-137.387 388.268-6.4 70.827 45.653 133.12 116.053 139.52 3.84 0 7.68 0.427 11.52 0.427h129.28c63.147 0 117.333-46.933 126.293-110.080 5.12-38.4 14.507-75.52 27.734-110.933 17.493-46.507 5.973-99.413-29.014-134.827l-30.72-30.721c49.92-78.507 116.907-145.493 195.84-195.84l30.72 30.72c35.413 34.987 88.747 46.507 135.253 29.013 35.413-13.227 72.96-22.613 110.507-27.307 64.427-8.96 111.787-64.853 110.507-129.28v-127.573c0-70.4-56.747-128-127.573-128.427h-1.28zM280.324 808.961h-128.853c-27.307-2.133-44.373-23.040-42.24-46.507 13.227-123.733 56.32-245.334 124.16-350.721 61.867-97.28 145.92-181.333 243.2-243.2 104.96-68.267 225.707-110.933 349.867-124.587 26.88 0 45.653 19.2 45.653 42.667v129.28c0.427 21.76-15.36 40.533-36.693 43.52-43.52 5.547-87.040 16.64-128.853 32-15.787 5.973-33.28 2.133-45.227-9.387l-54.187-54.187c-13.653-13.653-34.56-16.213-51.2-6.827-113.493 64.427-207.36 158.72-272.214 272.213-9.387 16.64-6.827 37.547 6.827 51.201l54.187 54.187c11.52 11.52 15.36 29.44 9.387 44.8-15.36 41.813-26.453 85.333-32 129.28-2.987 20.48-20.907 36.267-42.24 36.267h0.427zM786.778 512.427c-20.053 0-37.973 14.080-41.813 34.561-13.227 68.693-66.133 121.6-134.827 134.827-23.040 4.693-38.4 26.88-33.707 49.92 4.267 23.040 26.88 38.4 49.92 33.707 102.827-20.053 182.187-99.413 202.24-202.24 4.693-23.040-10.667-45.654-33.707-49.921-2.56-0.427-5.547-0.853-8.107-0.853zM957.444 512.427c-21.333 0-40.107 16.213-42.24 37.974-17.92 159.573-142.080 283.307-301.653 301.227-23.467 2.56-40.107 23.893-37.547 46.933 2.56 23.467 23.893 40.107 46.933 37.547 199.68-22.187 354.56-177.067 376.747-376.32 2.56-23.467-14.080-44.374-37.547-47.361-1.707 0-3.413 0-4.693 0z" />
<glyph unicode="&#xe903;" glyph-name="about-map" data-tags="about-map" d="M992 901.12c-12.8 7.253-28.587 7.68-41.813 0l-272.64-155.733-313.599 157.013c-12.373 5.973-27.307 5.973-39.253-1.28l-292.267-166.4c-12.8-7.253-20.907-21.333-20.907-36.267v-667.733c0-14.933 8.107-28.587 20.907-36.267s28.587-7.68 41.813 0l272.64 155.733 313.599-157.013c5.973-2.987 12.373-4.267 18.773-4.267 7.253 0 14.507 1.707 20.907 5.547l291.84 166.827c12.8 7.253 20.907 21.333 20.907 36.267v667.733c0 14.933-8.107 28.587-20.907 36.267v-0.427zM386.988 797.44l250.452-125.013v-574.293l-250.452 125.013v574.293zM95.148 673.707l208.64 119.040v-571.307l-208.64-119.040v571.307zM929.707 221.44l-208.64-119.040v571.733l208.64 119.040v-571.733z" />
<glyph unicode="&#xe904;" glyph-name="about-message" data-tags="about-message" d="M127.998 21.333c-11.093 0-22.187 4.267-30.293 12.373-11.52 11.52-15.36 28.16-10.24 43.52l75.52 226.987c-23.040 51.627-35.413 108.373-34.987 165.12 0 154.453 85.76 293.12 224 362.24 55.467 28.16 117.762 43.093 180.482 43.093h22.187c208.64-11.52 372.48-175.36 384-381.44v-23.893c0-62.72-14.507-125.44-43.093-181.333-69.12-137.813-207.787-224-362.24-224-56.747 0-113.495 11.947-165.122 34.987l-226.987-75.52c-4.267-1.28-8.96-2.133-13.653-2.133h0.427zM532.48 789.333c-49.067 0-98.133-11.52-142.082-33.707-109.227-54.613-177.067-164.267-177.067-286.293 0-49.493 11.52-98.987 33.707-142.933 5.12-10.24 5.973-21.76 2.56-32.853l-54.187-162.133 162.133 54.187c10.667 3.413 22.613 2.56 32.853-2.56 43.949-22.187 93.015-33.707 142.082-33.707h0.853c122.027 0 231.68 67.84 286.293 177.067 22.187 44.373 34.133 93.44 33.707 142.933v21.333c-8.96 160.427-138.24 289.707-300.8 298.667h-19.2c0 0-0.427 0-0.853 0z" />
<glyph unicode="&#xe905;" glyph-name="chevron-down" data-tags="chevron-down" d="M512.427 277.333c-11.093 0-21.76 4.267-30.293 12.373l-256 256c-16.64 16.64-16.64 43.52 0 60.16s43.52 16.64 60.16 0l225.707-225.707 225.707 225.707c16.64 16.64 43.52 16.64 60.16 0s16.64-43.52 0-60.16l-256-256c-8.533-8.533-19.2-12.373-30.293-12.373h0.853z" />
<glyph unicode="&#xe906;" glyph-name="chevron-left" data-tags="chevron-left" d="M640.427 149.333c-11.093 0-21.76 4.267-30.293 12.373l-256 256c-16.64 16.64-16.64 43.52 0 60.16l256 256c16.64 16.64 43.52 16.64 60.16 0s16.64-43.52 0-60.16l-225.707-225.707 225.707-225.707c16.64-16.64 16.64-43.52 0-60.16-8.533-8.533-19.2-12.373-30.293-12.373h0.427z" />
<glyph unicode="&#xe907;" glyph-name="chevron-right" data-tags="chevron-right" d="M384.427 149.76c-11.093 0-21.76 4.267-30.293 12.373-16.64 16.64-16.64 43.52 0 60.16l225.707 225.707-225.707 225.707c-16.64 16.64-16.64 43.52 0 60.16s43.52 16.64 60.16 0l256-256c16.64-16.64 16.64-43.52 0-60.16l-256-256c-8.533-8.533-19.2-12.373-30.293-12.373h0.427z" />
<glyph unicode="&#xe908;" glyph-name="chevron-up" data-tags="chevron-up" d="M767.573 277.333c-11.093 0-21.76 4.267-30.293 12.373l-225.707 225.707-225.707-225.707c-16.64-16.64-43.52-16.64-60.16 0s-16.64 43.52 0 60.16l256 256c16.64 16.64 43.52 16.64 60.16 0l256-256c16.64-16.64 16.64-43.52 0-60.16-8.533-8.533-19.2-12.373-30.293-12.373z" />
<glyph unicode="&#xe909;" glyph-name="code" data-tags="code" d="M170.667 192c-12.8 0-21.333 4.267-29.867 12.8-17.067 17.067-17.067 42.667 0 59.733l226.133 226.133-226.133 226.133c-17.067 17.067-17.067 42.667 0 59.733s42.667 17.067 59.733 0l256-256c17.067-17.067 17.067-42.667 0-59.733l-256-256c-8.533-8.533-17.067-12.8-29.867-12.8zM896 149.333c0 25.6-17.067 42.667-42.667 42.667h-341.333c-25.6 0-42.667-17.067-42.667-42.667s17.067-42.667 42.667-42.667h341.333c25.6 0 42.667 17.067 42.667 42.667z" />
<glyph unicode="&#xe90a;" glyph-name="comment" data-tags="comment" d="M128 21.333c-4.267 0-12.8 0-17.067 4.267-17.067 4.267-25.6 21.333-25.6 38.4v682.667c0 72.533 55.467 128 128 128h597.333c72.533 0 128-55.467 128-128v-426.667c0-72.533-55.467-128-128-128h-494.933l-157.867-157.867c-8.533-8.533-17.067-12.8-29.867-12.8zM213.333 789.333c-25.6 0-42.667-17.067-42.667-42.667v-580.267l98.133 98.133c8.533 8.533 17.067 12.8 29.867 12.8h512c25.6 0 42.667 17.067 42.667 42.667v426.667c0 25.6-17.067 42.667-42.667 42.667h-597.333z" />
<glyph unicode="&#xe90b;" glyph-name="copy" data-tags="copy" d="M853.333-21.333h-384c-72.533 0-128 55.467-128 128v384c0 72.533 55.467 128 128 128h384c72.533 0 128-55.467 128-128v-384c0-72.533-55.467-128-128-128zM469.333 533.333c-25.6 0-42.667-17.067-42.667-42.667v-384c0-25.6 17.067-42.667 42.667-42.667h384c25.6 0 42.667 17.067 42.667 42.667v384c0 25.6-17.067 42.667-42.667 42.667h-384zM256 320c0 25.6-17.067 42.667-42.667 42.667h-42.667c-25.6 0-42.667 17.067-42.667 42.667v384c0 25.6 17.067 42.667 42.667 42.667h384c25.6 0 42.667-17.067 42.667-42.667v-42.667c0-25.6 17.067-42.667 42.667-42.667s42.667 17.067 42.667 42.667v42.667c0 72.533-55.467 128-128 128h-384c-72.533 0-128-55.467-128-128v-384c0-72.533 55.467-128 128-128h42.667c25.6 0 42.667 17.067 42.667 42.667z" />
<glyph unicode="&#xe90c;" glyph-name="dashboard" data-tags="dashboard" d="M810.667 874.667h-597.333c-72.533 0-128-55.467-128-128v-597.333c0-72.533 55.467-128 128-128h597.333c72.533 0 128 55.467 128 128v597.333c0 72.533-55.467 128-128 128zM213.333 789.333h597.333c25.6 0 42.667-17.067 42.667-42.667v-128h-682.667v128c0 25.6 17.067 42.667 42.667 42.667zM170.667 149.333v384h170.667v-426.667h-128c-25.6 0-42.667 17.067-42.667 42.667zM810.667 106.667h-384v426.667h426.667v-384c0-25.6-17.067-42.667-42.667-42.667z" />
<glyph unicode="&#xe90d;" glyph-name="edit" data-tags="edit" d="M85.333-21.333c-12.8 0-21.333 4.267-29.867 12.8-12.8 12.8-17.067 25.6-12.8 42.667l64 234.667c0 8.533 4.267 12.8 12.8 17.067l576 576c64 64 166.4 64 230.4 0s64-166.4 0-230.4l-576-576c-4.267-4.267-12.8-8.533-17.067-12.8l-234.667-64c-4.267 0-8.533 0-12.8 0zM187.733 234.667l-42.667-153.6 153.6 42.667 567.467 567.467c29.867 29.867 29.867 81.067 0 110.933s-81.067 29.867-110.933 0l-567.467-567.467zM320 85.333v0 0z" />
<glyph unicode="&#xe90e;" glyph-name="file" data-tags="file" d="M883.2 605.867l-298.667 298.667c-8.533 8.533-17.067 12.8-29.867 12.8h-298.667c-72.533 0-128-55.467-128-128v-682.667c0-72.533 55.467-128 128-128h512c72.533 0 128 55.467 128 128v469.333c0 12.8-4.267 21.333-12.8 29.867zM597.333 772.267l153.6-153.6h-153.6v153.6zM768 64h-512c-25.6 0-42.667 17.067-42.667 42.667v682.667c0 25.6 17.067 42.667 42.667 42.667h256v-256c0-25.6 17.067-42.667 42.667-42.667h256v-426.667c0-25.6-17.067-42.667-42.667-42.667z" />
<glyph unicode="&#xe90f;" glyph-name="file-text" data-tags="file-text" d="M883.2 648.533l-256 256c-8.533 8.533-17.067 12.8-29.867 12.8h-341.333c-72.533 0-128-55.467-128-128v-682.667c0-72.533 55.467-128 128-128h512c72.533 0 128 55.467 128 128v512c0 12.8-4.267 21.333-12.8 29.867zM640 772.267l110.933-110.933h-110.933v110.933zM768 64h-512c-25.6 0-42.667 17.067-42.667 42.667v682.667c0 25.6 17.067 42.667 42.667 42.667h298.667v-213.333c0-25.6 17.067-42.667 42.667-42.667h213.333v-469.333c0-25.6-17.067-42.667-42.667-42.667zM682.667 362.667h-341.333c-25.6 0-42.667 17.067-42.667 42.667s17.067 42.667 42.667 42.667h341.333c25.6 0 42.667-17.067 42.667-42.667s-17.067-42.667-42.667-42.667zM682.667 192h-341.333c-25.6 0-42.667 17.067-42.667 42.667s17.067 42.667 42.667 42.667h341.333c25.6 0 42.667-17.067 42.667-42.667s-17.067-42.667-42.667-42.667zM426.667 533.333h-85.333c-25.6 0-42.667 17.067-42.667 42.667s17.067 42.667 42.667 42.667h85.333c25.6 0 42.667-17.067 42.667-42.667s-17.067-42.667-42.667-42.667z" />
<glyph unicode="&#xe910;" glyph-name="folder" data-tags="folder" d="M853.333 21.333h-682.667c-72.533 0-128 55.467-128 128v597.333c0 72.533 55.467 128 128 128h213.333c12.8 0 25.6-8.533 34.133-17.067l72.533-110.933h362.667c72.533 0 128-55.467 128-128v-469.333c0-72.533-55.467-128-128-128zM170.667 789.333c-25.6 0-42.667-17.067-42.667-42.667v-597.333c0-25.6 17.067-42.667 42.667-42.667h682.667c25.6 0 42.667 17.067 42.667 42.667v469.333c0 25.6-17.067 42.667-42.667 42.667h-384c-12.8 0-25.6 8.533-34.133 17.067l-72.533 110.933h-192z" />
<glyph unicode="&#xe911;" glyph-name="follow" data-tags="follow" d="M725.333 21.333c-25.6 0-42.667 17.067-42.667 42.667v85.333c0 72.533-55.467 128-128 128h-341.333c-72.533 0-128-55.467-128-128v-85.333c0-25.6-17.067-42.667-42.667-42.667s-42.667 17.067-42.667 42.667v85.333c0 119.467 93.867 213.333 213.333 213.333h341.333c119.467 0 213.333-93.867 213.333-213.333v-85.333c0-25.6-17.067-42.667-42.667-42.667zM597.333 661.333c0 119.467-93.867 213.333-213.333 213.333s-213.333-93.867-213.333-213.333c0-119.467 93.867-213.333 213.333-213.333s213.333 93.867 213.333 213.333zM512 661.333c0-72.533-55.467-128-128-128s-128 55.467-128 128c0 72.533 55.467 128 128 128s128-55.467 128-128zM1024 64v85.333c0 98.133-64 183.467-162.133 204.8-21.333 4.267-46.933-8.533-51.2-29.867s8.533-46.933 29.867-51.2c55.467-12.8 93.867-64 93.867-123.733v-85.333c0-25.6 17.067-42.667 42.667-42.667s46.933 17.067 46.933 42.667zM691.2 456.533c76.8 21.333 136.533 76.8 153.6 153.6 29.867 115.2-38.4 230.4-153.6 260.267-21.333 4.267-42.667-8.533-51.2-34.133-4.267-21.333 8.533-46.933 29.867-51.2 68.267-17.067 110.933-85.333 93.867-157.867-12.8-46.933-46.933-81.067-93.867-93.867-21.333-4.267-38.4-29.867-29.867-51.2 4.267-21.333 21.333-34.133 42.667-34.133 4.267 4.267 8.533 4.267 8.533 8.533z" />
<glyph unicode="&#xe912;" glyph-name="fullscreen" data-tags="fullscreen" d="M810.667 21.333h-128c-25.6 0-42.667 17.067-42.667 42.667s17.067 42.667 42.667 42.667h128c25.6 0 42.667 17.067 42.667 42.667v128c0 25.6 17.067 42.667 42.667 42.667s42.667-17.067 42.667-42.667v-128c0-72.533-55.467-128-128-128zM341.333 21.333h-128c-72.533 0-128 55.467-128 128v128c0 25.6 17.067 42.667 42.667 42.667s42.667-17.067 42.667-42.667v-128c0-25.6 17.067-42.667 42.667-42.667h128c25.6 0 42.667-17.067 42.667-42.667s-17.067-42.667-42.667-42.667zM896 576c-25.6 0-42.667 17.067-42.667 42.667v128c0 25.6-17.067 42.667-42.667 42.667h-128c-25.6 0-42.667 17.067-42.667 42.667s17.067 42.667 42.667 42.667h128c72.533 0 128-55.467 128-128v-128c0-25.6-17.067-42.667-42.667-42.667zM128 576c-25.6 0-42.667 17.067-42.667 42.667v128c0 72.533 55.467 128 128 128h128c25.6 0 42.667-17.067 42.667-42.667s-17.067-42.667-42.667-42.667h-128c-25.6 0-42.667-17.067-42.667-42.667v-128c0-25.6-17.067-42.667-42.667-42.667z" />
<glyph unicode="&#xe913;" glyph-name="globe" data-tags="globe" d="M512 917.333c-260.267 0-469.333-209.067-469.333-469.333s209.067-469.333 469.333-469.333 469.333 209.067 469.333 469.333-209.067 469.333-469.333 469.333zM891.733 490.667h-170.667c-8.533 119.467-51.2 230.4-115.2 328.533 153.6-38.4 268.8-170.667 285.867-328.533zM635.733 490.667h-247.467c12.8 115.2 55.467 226.133 123.733 315.733 72.533-89.6 115.2-200.533 123.733-315.733zM418.133 819.2c-68.267-98.133-106.667-209.067-115.2-328.533h-170.667c17.067 157.867 132.267 290.133 285.867 328.533zM132.267 405.333h170.667c8.533-119.467 51.2-230.4 115.2-328.533-153.6 38.4-268.8 170.667-285.867 328.533zM388.267 405.333h251.733c-12.8-115.2-55.467-226.133-123.733-315.733-76.8 89.6-119.467 200.533-128 315.733zM610.133 76.8c64 98.133 102.4 209.067 115.2 328.533h170.667c-21.333-157.867-136.533-290.133-285.867-328.533z" />
<glyph unicode="&#xe914;" glyph-name="header-blog" data-tags="header-blog" d="M699.733 69.973h-375.467c-95.67 0-173.227 77.556-173.227 173.227v0 409.6c0 95.67 77.556 173.227 173.227 173.227v0h197.547c95.67 0 173.227-77.556 173.227-173.227v-69.973c0.003-0.363 0.004-0.793 0.004-1.222 0-32.138-8.883-62.201-24.327-87.867l0.43 0.77h28.587c0.001 0 0.003 0 0.005 0 95.67 0 173.227-77.556 173.227-173.227 0-0.45-0.002-0.9-0.005-1.349v0.069-76.8c0-95.67-77.556-173.227-173.227-173.227v0zM236.373 409.173v-165.973c0-48.542 39.351-87.893 87.893-87.893v0h375.467c48.542 0 87.893 39.351 87.893 87.893v0 76.8c0 48.542-39.351 87.893-87.893 87.893v0zM236.373 494.507h285.44c48.594 0.242 87.893 39.691 87.893 88.319 0 0 0 0.001 0 0.001v0 69.973c0 48.542-39.351 87.893-87.893 87.893h-197.547c-48.542 0-87.893-39.351-87.893-87.893v0z" />
<glyph unicode="&#xe915;" glyph-name="header-file-manager" data-tags="header-file-manager" d="M883.627 606.293l-298.667 298.667c-7.709 7.648-18.326 12.374-30.047 12.374-0.087 0-0.173 0-0.26-0.001h-298.654c-70.692 0-128-57.308-128-128v0-682.667c0-70.692 57.308-128 128-128v0h512c70.692 0 128 57.308 128 128v0 469.333c0 0.073 0.001 0.16 0.001 0.247 0 11.721-4.726 22.338-12.377 30.049l0.003-0.003zM597.333 771.84l153.173-153.173h-153.173zM768 64h-512c-23.564 0-42.667 19.103-42.667 42.667v0 682.667c0 23.564 19.103 42.667 42.667 42.667v0h256v-256c0-23.564 19.103-42.667 42.667-42.667v0h256v-426.667c0-23.564-19.103-42.667-42.667-42.667v0z" />
<glyph unicode="&#xe916;" glyph-name="header-forum" data-tags="header-forum" d="M365.653 533.333c0-40.059-32.474-72.533-72.533-72.533s-72.533 32.474-72.533 72.533c0 40.059 32.474 72.533 72.533 72.533v0c40.059 0 72.533-32.474 72.533-72.533v0zM938.667 746.667v-426.667c0-70.692-57.308-128-128-128v0h-494.507l-157.867-158.293c-7.709-7.648-18.326-12.374-30.047-12.374-0.087 0-0.173 0-0.26 0.001h0.013c-0.275-0.008-0.599-0.012-0.923-0.012-5.554 0-10.813 1.263-15.505 3.518l0.215-0.093c-15.59 6.527-26.363 21.621-26.453 39.242v682.679c0 70.692 57.308 128 128 128v0h597.333c70.692 0 128-57.308 128-128v0zM853.333 746.667c0 23.564-19.103 42.667-42.667 42.667v0h-597.333c-23.564 0-42.667-19.103-42.667-42.667v0-579.84l97.707 98.133c7.709 7.648 18.326 12.374 30.047 12.374 0.087 0 0.173 0 0.26-0.001h511.987c23.564 0 42.667 19.103 42.667 42.667v0zM730.88 606.293c-0.126 0.001-0.276 0.001-0.425 0.001-40.059 0-72.533-32.474-72.533-72.533s32.474-72.533 72.533-72.533c39.909 0 72.289 32.231 72.532 72.082v0.023c0.001 0.127 0.001 0.277 0.001 0.428 0 39.91-32.232 72.291-72.085 72.532h-0.023zM512 628.48c-52.312-0.001-94.719-42.408-94.719-94.72s42.408-94.72 94.72-94.72c52.162 0 94.477 42.165 94.719 94.27v0.023c0.001 0.127 0.001 0.277 0.001 0.427 0 52.312-42.408 94.72-94.72 94.72 0 0-0.001 0-0.001 0v0z" />
<glyph unicode="&#xe917;" glyph-name="header-plugin" data-tags="header-plugin" d="M773.547 29.867h-523.093c-94.257 0-170.667 76.41-170.667 170.667v0 407.040c0 47.128 38.205 85.333 85.333 85.333v0h12.373v130.56c0 23.564 19.103 42.667 42.667 42.667v0h227.413c23.564 0 42.667-19.103 42.667-42.667v0-130.56h42.667v130.56c0 23.564 19.103 42.667 42.667 42.667v0h227.413c23.564 0 42.667-19.103 42.667-42.667v0-130.56h12.373c47.128 0 85.333-38.205 85.333-85.333v0-407.040c0-0.001 0-0.001 0-0.002 0-93.957-75.924-170.18-169.767-170.664h-0.046zM165.12 607.573v-407.040c0-47.128 38.205-85.333 85.333-85.333v0h523.093c47.128 0 85.333 38.205 85.333 85.333v0 407.040h-55.040c-23.564 0-42.667 19.103-42.667 42.667v0 130.56h-142.080v-130.56c0-23.564-19.103-42.667-42.667-42.667v0h-128c-23.564 0-42.667 19.103-42.667 42.667v0 130.56h-142.933v-130.56c0-23.564-19.103-42.667-42.667-42.667v0z" />
<glyph unicode="&#xe918;" glyph-name="header-profile" data-tags="header-profile" d="M853.333 21.333c-23.564 0-42.667 19.103-42.667 42.667v0 85.333c0 70.692-57.308 128-128 128v0h-341.333c-70.692 0-128-57.308-128-128v0-85.333c0-23.564-19.103-42.667-42.667-42.667s-42.667 19.103-42.667 42.667v0 85.333c0 117.821 95.513 213.333 213.333 213.333v0h341.333c117.821 0 213.333-95.513 213.333-213.333v0-85.333c0-23.564-19.103-42.667-42.667-42.667v0zM725.333 661.333c0 117.821-95.513 213.333-213.333 213.333s-213.333-95.513-213.333-213.333c0-117.821 95.513-213.333 213.333-213.333v0c117.821 0 213.333 95.513 213.333 213.333v0zM640 661.333c0-70.692-57.308-128-128-128s-128 57.308-128 128c0 70.692 57.308 128 128 128v0c70.692 0 128-57.308 128-128v0z" />
<glyph unicode="&#xe919;" glyph-name="header-tweet" data-tags="header-tweet" d="M128 21.333c-0.073 0-0.16-0.001-0.247-0.001-11.721 0-22.338 4.726-30.049 12.377l0.003-0.003c-7.546 7.69-12.203 18.238-12.203 29.873 0 4.568 0.718 8.969 2.047 13.095l-0.084-0.302 75.52 226.56c-22.105 48.654-34.988 105.509-34.988 165.374 0 0.361 0 0.722 0.001 1.083v-0.056c0.482 223.366 181.183 404.366 404.388 405.333h22.279c206.847-10.477 372.11-174.853 383.95-380.359l0.050-1.081v-23.893c-0.484-223.664-181.669-404.849-405.286-405.333h-0.047c-59.346 0.081-115.663 12.958-166.371 36.017l2.531-1.030-227.84-77.653c-2.051-0.293-4.419-0.461-6.827-0.461s-4.776 0.168-7.094 0.492l0.268-0.031zM532.48 789.333c-176.359-0.491-319.136-143.571-319.136-319.999 0-52.097 12.449-101.286 34.535-144.755l-0.839 1.82c2.967-5.662 4.709-12.37 4.709-19.484 0-4.781-0.786-9.378-2.237-13.67l0.088 0.301-54.187-162.133 162.133 54.187c3.991 1.362 8.588 2.149 13.369 2.149 7.114 0 13.822-1.741 19.72-4.821l-0.236 0.112c41.375-21.241 90.272-33.695 142.077-33.707h0.003c0.253-0.001 0.553-0.001 0.853-0.001 176.731 0 320 143.269 320 320 0 0 0 0.001 0 0.001v0 21.333c-9.938 160.794-137.873 288.729-297.762 298.622l-0.904 0.045h-20.053z" />
<glyph unicode="&#xe91a;" glyph-name="home" data-tags="home" d="M810.667-8.533h-597.333c-72.533 0-128 55.467-128 128v371.2c0 76.8 34.133 145.067 93.867 192l238.933 187.733c55.467 42.667 132.267 42.667 187.733 0l238.933-187.733c59.733-42.667 93.867-115.2 93.867-192v-371.2c0-68.267-55.467-128-128-128zM512 819.2c-12.8 0-29.867-4.267-42.667-12.8l-238.933-187.733c-38.4-29.867-59.733-76.8-59.733-128v-371.2c0-25.6 17.067-42.667 42.667-42.667h597.333c25.6 0 42.667 17.067 42.667 42.667v371.2c0 46.933-21.333 93.867-59.733 123.733l-238.933 187.733c-12.8 12.8-29.867 17.067-42.667 17.067zM204.8 652.8v0 0z" />
<glyph unicode="&#xe91b;" glyph-name="image" data-tags="image" d="M362.667 490.667c-59.733 0-106.667 46.933-106.667 106.667s46.933 106.667 106.667 106.667 106.667-46.933 106.667-106.667-46.933-106.667-106.667-106.667zM362.667 618.667c-12.8 0-21.333-8.533-21.333-21.333s8.533-21.333 21.333-21.333 21.333 8.533 21.333 21.333-8.533 21.333-21.333 21.333zM810.667 874.667h-597.333c-72.533 0-128-55.467-128-128v-597.333c0-72.533 55.467-128 128-128h597.333c72.533 0 128 55.467 128 128v597.333c0 72.533-55.467 128-128 128zM170.667 149.333v597.333c0 25.6 17.067 42.667 42.667 42.667h597.333c25.6 0 42.667-17.067 42.667-42.667v-324.267l-140.8 140.8c-17.067 17.067-42.667 17.067-59.733 0l-452.267-452.267c-17.067 4.267-29.867 21.333-29.867 38.4zM810.667 106.667h-494.933l366.933 366.933 170.667-170.667v-153.6c0-25.6-17.067-42.667-42.667-42.667z" />
<glyph unicode="&#xe91c;" glyph-name="layout" data-tags="layout" d="M810.667 874.667h-597.333c-72.533 0-128-55.467-128-128v-597.333c0-72.533 55.467-128 128-128h597.333c72.533 0 128 55.467 128 128v597.333c0 72.533-55.467 128-128 128zM213.333 106.667c-25.6 0-42.667 17.067-42.667 42.667v597.333c0 25.6 17.067 42.667 42.667 42.667h128v-682.667h-128zM853.333 149.333c0-25.6-17.067-42.667-42.667-42.667h-384v682.667h384c25.6 0 42.667-17.067 42.667-42.667v-597.333z" />
<glyph unicode="&#xe91d;" glyph-name="like" data-tags="like" d="M780.8-21.333h-610.133c-72.533 0-128 55.467-128 128v298.667c0 72.533 55.467 128 128 128h102.4l157.867 358.4c4.267 17.067 21.333 25.6 38.4 25.6 93.867 0 170.667-76.8 170.667-170.667v-128h200.533c8.533 0 12.8 0 21.333 0 34.133-4.267 64-21.333 85.333-51.2 21.333-25.6 29.867-59.733 21.333-93.867l-59.733-384c-12.8-64-64-110.933-128-110.933zM341.333 64h439.467c21.333 0 38.4 17.067 42.667 34.133l59.733 384c0 12.8 0 21.333-8.533 29.867s-17.067 17.067-29.867 17.067c-4.267 0-4.267 0-8.533 0h-238.933c-25.6 0-42.667 17.067-42.667 42.667v174.933c0 38.4-25.6 68.267-59.733 81.067l-153.6-345.6v-418.133zM170.667 448c-25.6 0-42.667-17.067-42.667-42.667v-298.667c0-25.6 17.067-42.667 42.667-42.667h85.333v384h-85.333z" />
<glyph unicode="&#xe91e;" glyph-name="logout" data-tags="logout" d="M384 21.333h-170.667c-72.533 0-128 55.467-128 128v597.333c0 72.533 55.467 128 128 128h170.667c25.6 0 42.667-17.067 42.667-42.667s-17.067-42.667-42.667-42.667h-170.667c-25.6 0-42.667-17.067-42.667-42.667v-597.333c0-25.6 17.067-42.667 42.667-42.667h170.667c25.6 0 42.667-17.067 42.667-42.667s-17.067-42.667-42.667-42.667zM925.867 477.867l-213.333 213.333c-17.067 17.067-42.667 17.067-59.733 0s-17.067-42.667 0-59.733l140.8-140.8h-409.6c-25.6 0-42.667-17.067-42.667-42.667s17.067-42.667 42.667-42.667h409.6l-140.8-140.8c-17.067-17.067-17.067-42.667 0-59.733 8.533-8.533 21.333-12.8 29.867-12.8s21.333 4.267 29.867 12.8l213.333 213.333c17.067 17.067 17.067 42.667 0 59.733z" />
<glyph unicode="&#xe91f;" glyph-name="social-Twitter-x" data-tags="Twitter-x" d="M46.51 872.9l362.667-469.333-362.667-384h81.067l320 337.067 256-337.067h277.333l-384 499.2 341.333 354.133h-81.067l-294.4-307.2-238.933 307.2h-277.333zM165.977 817.433h128l567.467-733.867h-128l-567.467 733.867z" />
<glyph unicode="&#xe920;" glyph-name="message" data-tags="message" d="M128 21.333c-4.267 0-12.8 0-17.067 4.267-17.067 4.267-25.6 21.333-25.6 38.4v682.667c0 72.533 55.467 128 128 128h597.333c72.533 0 128-55.467 128-128v-426.667c0-72.533-55.467-128-128-128h-494.933l-157.867-157.867c-8.533-8.533-17.067-12.8-29.867-12.8zM213.333 789.333c-25.6 0-42.667-17.067-42.667-42.667v-580.267l98.133 98.133c8.533 8.533 17.067 12.8 29.867 12.8h512c25.6 0 42.667 17.067 42.667 42.667v426.667c0 25.6-17.067 42.667-42.667 42.667h-597.333z" />
<glyph unicode="&#xe921;" glyph-name="minus" data-tags="minus" d="M810.667 405.333h-597.333c-23.467 0-42.667 19.2-42.667 42.667s19.2 42.667 42.667 42.667h597.333c23.467 0 42.667-19.2 42.667-42.667s-19.2-42.667-42.667-42.667z" />
<glyph unicode="&#xe922;" glyph-name="moon" data-tags="moon" d="M512 21.333c-12.8 0-25.6 0-38.4 0-234.667 21.333-405.333 230.4-384 465.067 17.067 204.8 179.2 366.933 384 384 17.067 0 34.133-8.533 42.667-21.333s8.533-34.133-4.267-46.933c-85.333-115.2-59.733-273.067 55.467-358.4 89.6-68.267 213.333-68.267 302.933 0 12.8 8.533 29.867 12.8 46.933 4.267 12.8-8.533 21.333-25.6 21.333-42.667-8.533-115.2-64-217.6-153.6-290.133-76.8-59.733-170.667-93.867-273.067-93.867zM396.8 768c-123.733-42.667-213.333-153.6-221.867-290.133-17.067-187.733 119.467-354.133 307.2-371.2 89.6-8.533 179.2 17.067 247.467 76.8 46.933 38.4 81.067 89.6 102.4 145.067-106.667-38.4-226.133-21.333-320 46.933-119.467 93.867-166.4 256-115.2 392.533z" />
<glyph unicode="&#xe923;" glyph-name="more" data-tags="more" d="M640 832c0-70.692-57.308-128-128-128s-128 57.308-128 128c0 70.692 57.308 128 128 128s128-57.308 128-128zM640 448c0-70.692-57.308-128-128-128s-128 57.308-128 128c0 70.692 57.308 128 128 128s128-57.308 128-128zM640 64c0-70.692-57.308-128-128-128s-128 57.308-128 128c0 70.692 57.308 128 128 128s128-57.308 128-128z" />
<glyph unicode="&#xe924;" glyph-name="navigation-menu" data-tags="navigation-menu" d="M896 405.333h-768c-23.467 0-42.667 19.2-42.667 42.667s19.2 42.667 42.667 42.667h768c23.467 0 42.667-19.2 42.667-42.667s-19.2-42.667-42.667-42.667zM938.667 704c0 23.467-19.2 42.667-42.667 42.667h-768c-23.467 0-42.667-19.2-42.667-42.667s19.2-42.667 42.667-42.667h768c23.467 0 42.667 19.2 42.667 42.667zM938.667 192c0 23.467-19.2 42.667-42.667 42.667h-768c-23.467 0-42.667-19.2-42.667-42.667s19.2-42.667 42.667-42.667h768c23.467 0 42.667 19.2 42.667 42.667z" />
<glyph unicode="&#xe925;" glyph-name="notebook" data-tags="notebook" d="M810.667 836.267h-29.867v34.133c0 25.6-17.067 42.667-42.667 42.667s-42.667-17.067-42.667-42.667v-38.4h-64v38.4c0 25.6-17.067 42.667-42.667 42.667s-42.667-17.067-42.667-42.667v-38.4h-64v38.4c0 25.6-17.067 42.667-42.667 42.667s-42.667-17.067-42.667-42.667v-38.4h-68.267v38.4c0 25.6-17.067 42.667-42.667 42.667s-42.667-17.067-42.667-42.667v-38.4h-29.867c-72.533 0-128-55.467-128-128v-597.333c0-72.533 55.467-128 128-128h597.333c72.533 0 128 55.467 128 128v597.333c0 76.8-55.467 132.267-128 132.267zM853.333 110.933c0-25.6-17.067-42.667-42.667-42.667h-597.333c-25.6 0-42.667 17.067-42.667 42.667v597.333c0 25.6 17.067 42.667 42.667 42.667h29.867v-38.4c0-25.6 17.067-42.667 42.667-42.667s42.667 17.067 42.667 42.667v38.4h64v-38.4c0-25.6 17.067-42.667 42.667-42.667s42.667 17.067 42.667 42.667v38.4h64v-38.4c0-25.6 17.067-42.667 42.667-42.667s42.667 17.067 42.667 42.667v38.4h64v-38.4c0-25.6 17.067-42.667 42.667-42.667s42.667 17.067 42.667 42.667v38.4h34.133c25.6 0 42.667-17.067 42.667-42.667v-597.333z" />
<glyph unicode="&#xe926;" glyph-name="notification" data-tags="notification" d="M896 192h-768c-17.067 0-34.133 12.8-42.667 29.867-4.267 17.067 0 38.4 17.067 46.933 0 0 110.933 81.067 110.933 349.867 0 166.4 132.267 298.667 298.667 298.667s298.667-132.267 298.667-298.667c0-268.8 106.667-349.867 110.933-349.867 17.067-12.8 21.333-29.867 17.067-46.933s-25.6-29.867-42.667-29.867zM217.6 277.333h584.533c-34.133 64-76.8 170.667-76.8 341.333 0 119.467-93.867 213.333-213.333 213.333s-213.333-93.867-213.333-213.333c0-170.667-42.667-277.333-81.067-341.333zM622.933 42.667c12.8 21.333 4.267 46.933-17.067 59.733s-46.933 4.267-59.733-17.067c-12.8-21.333-38.4-25.6-59.733-17.067-8.533 4.267-12.8 8.533-17.067 17.067-12.8 21.333-38.4 25.6-59.733 17.067-21.333-12.8-25.6-38.4-17.067-59.733 12.8-21.333 25.6-34.133 46.933-46.933s42.667-17.067 64-17.067c51.2 0 93.867 21.333 119.467 64z" />
<glyph unicode="&#xe927;" glyph-name="paperclip" data-tags="paperclip" d="M354.133-34.133c-76.8 0-153.6 29.867-213.333 85.333-115.2 115.2-115.2 307.2 0 422.4l392.533 392.533c38.4 38.4 93.867 64 149.333 64s110.933-21.333 149.333-64c85.333-85.333 85.333-217.6 0-302.933l-392.533-392.533c-51.2-51.2-132.267-51.2-179.2 0-25.6 25.6-38.4 55.467-38.4 89.6s12.8 68.267 38.4 89.6l362.667 362.667c17.067 17.067 42.667 17.067 59.733 0s17.067-42.667 0-59.733l-362.667-362.667c-8.533-8.533-12.8-17.067-12.8-29.867s4.267-21.333 12.8-29.867c17.067-17.067 42.667-17.067 59.733 0l392.533 392.533c51.2 51.2 51.2 132.267 0 179.2-46.933 46.933-132.267 46.933-179.2 0l-392.533-392.533c-85.333-85.333-85.333-217.6 0-302.933s217.6-85.333 302.933 0l392.533 392.533c17.067 17.067 42.667 17.067 59.733 0s17.067-42.667 0-59.733l-392.533-392.533c-55.467-51.2-132.267-81.067-209.067-81.067z" />
<glyph unicode="&#xe928;" glyph-name="password-invisible" data-tags="password-invisible" d="M381.013 769.28c-5.547 23.040 8.96 46.080 32 51.2 32.427 7.68 64.853 12.8 99.413 11.52 321.28 0 500.053-349.867 507.307-364.8 5.973-12.373 5.973-26.88-0.427-39.253-27.307-51.2-60.16-99.413-97.28-143.36-8.533-10.24-20.48-15.36-32.853-15.36-9.813 0-19.627 3.413-27.307 9.813-17.92 15.36-20.48 42.24-5.12 60.16 28.587 33.707 53.76 70.4 75.947 108.8-40.107 68.693-191.147 298.667-420.693 298.667-25.6-1.28-53.76-2.987-79.787-8.96-23.040-5.547-46.080 8.96-51.2 32v0zM1011.627-52.053c-8.533-8.533-19.2-12.373-30.293-12.373s-21.76 4.267-30.293 12.373l-191.147 191.147c-73.813-47.787-158.72-73.813-247.467-75.52-321.707 0.427-500.48 350.293-507.733 365.227-6.4 12.373-5.973 26.88 0.427 39.253 48.64 90.453 113.493 168.96 191.147 235.52l-183.893 183.467c-16.64 16.64-16.64 43.947 0 60.587s43.947 16.64 60.587 0l938.24-938.667c16.64-16.64 16.64-43.52 0-60.16v0zM423.68 440.747c0.853-22.613 10.24-43.947 27.307-59.307 16.64-15.36 39.253-23.893 61.013-23.040 8.107 0 16.213 2.133 23.893 4.693l-107.52 107.52c-3.413-9.387-4.693-19.627-4.693-29.867zM698.027 200.96l-98.987 98.987c-25.173-15.787-53.76-25.6-84.053-26.453h-5.973c-43.52 0-84.48 16.213-116.053 45.653-33.28 31.147-52.48 73.387-54.187 118.613-1.28 34.56 8.107 67.84 26.027 96.427l-108.373 108.373c-65.707-55.467-121.6-120.747-164.693-195.84 40.107-68.693 191.147-298.667 420.693-298.667 65.707 1.28 129.28 19.627 186.027 52.48h-0.427z" />
<glyph unicode="&#xe929;" glyph-name="password-visible" data-tags="password-visible" d="M512 64.427c-321.28 0-500.053 349.44-507.307 364.8-5.973 11.947-5.973 26.027 0 37.973 7.253 14.933 186.027 364.8 507.307 364.8s500.053-349.867 507.307-364.8c5.973-11.947 5.973-26.027 0-37.973-7.253-14.933-186.027-364.8-507.307-364.8zM91.307 448.427c40.107-68.693 191.147-298.667 420.693-298.667s380.587 229.973 420.693 298.667c-40.107 68.693-191.147 298.667-420.693 298.667s-380.587-230.4-420.693-298.667zM512 277.76c-94.293 0-170.667 76.373-170.667 170.667s76.373 170.667 170.667 170.667 170.667-76.373 170.667-170.667-76.373-170.667-170.667-170.667zM512 533.76c-46.933 0-85.333-38.4-85.333-85.333s38.4-85.333 85.333-85.333 85.333 38.4 85.333 85.333-38.4 85.333-85.333 85.333z" />
<glyph unicode="&#xe92a;" glyph-name="photo-placeholder" data-tags="photo-placeholder" d="M896.853 21.333h-768.853c-70.4 0-128 57.6-128 128v469.333c0 70.4 57.6 128 128 128h147.627l72.533 108.8c8.107 11.947 21.333 19.2 35.413 19.2h256.427c14.080 0 27.733-7.253 35.413-19.2l72.533-108.8h147.627c70.4 0 128-57.6 128-128v-469.333c0-70.4-57.6-128-128-128h0.853zM128 661.333c-23.467 0-42.667-19.2-42.667-42.667v-469.333c0-23.467 19.2-42.667 42.667-42.667h768.853c23.467 0 42.667 19.2 42.667 42.667v469.333c0 23.467-19.2 42.667-42.667 42.667h-170.667c-14.080 0-27.733 7.253-35.413 19.2l-72.533 108.8h-210.347l-72.533-108.8c-8.107-11.947-21.333-19.2-35.413-19.2h-171.947zM512.427 192c-117.76 0-213.333 95.573-213.333 213.333s95.573 213.333 213.333 213.333 213.333-95.573 213.333-213.333-95.573-213.333-213.333-213.333zM512.427 533.333c-70.4 0-128-57.6-128-128s57.6-128 128-128 128 57.6 128 128-57.6 128-128 128z" />
<glyph unicode="&#xe92b;" glyph-name="plus" data-tags="plus" d="M810.667 490.667h-256v256c0 23.467-19.2 42.667-42.667 42.667s-42.667-19.2-42.667-42.667v-256h-256c-23.467 0-42.667-19.2-42.667-42.667s19.2-42.667 42.667-42.667h256v-256c0-23.467 19.2-42.667 42.667-42.667s42.667 19.2 42.667 42.667v256h256c23.467 0 42.667 19.2 42.667 42.667s-19.2 42.667-42.667 42.667z" />
<glyph unicode="&#xe92c;" glyph-name="profile" data-tags="profile" d="M853.333 21.333c-23.467 0-42.667 19.2-42.667 42.667v85.333c0 70.4-57.6 128-128 128h-341.333c-70.4 0-128-57.6-128-128v-85.333c0-23.467-19.2-42.667-42.667-42.667s-42.667 19.2-42.667 42.667v85.333c0 117.76 95.573 213.333 213.333 213.333h341.333c117.76 0 213.333-95.573 213.333-213.333v-85.333c0-23.467-19.2-42.667-42.667-42.667zM725.333 661.333c0 117.76-95.573 213.333-213.333 213.333s-213.333-95.573-213.333-213.333 95.573-213.333 213.333-213.333 213.333 95.573 213.333 213.333zM640 661.333c0-70.4-57.6-128-128-128s-128 57.6-128 128 57.6 128 128 128 128-57.6 128-128z" />
<glyph unicode="&#xe92d;" glyph-name="regenerate" data-tags="regenerate" d="M341.333 533.333c0 25.6-17.067 42.667-42.667 42.667h-149.333l119.467 115.2c34.133 34.133 81.067 64 128 81.067 85.333 29.867 179.2 25.6 260.267-12.8s145.067-106.667 174.933-196.267c8.533-21.333 34.133-34.133 55.467-25.6s34.133 34.133 25.6 55.467c-38.4 106.667-115.2 192-217.6 243.2s-217.6 55.467-324.267 17.067c-59.733-25.6-115.2-59.733-157.867-102.4l-128-119.467v157.867c0 25.6-17.067 42.667-42.667 42.667s-42.667-17.067-42.667-42.667v-256c0-25.6 17.067-42.667 42.667-42.667h256c25.6 0 42.667 17.067 42.667 42.667zM981.333 405.333h-256c-25.6 0-42.667-17.067-42.667-42.667s17.067-42.667 42.667-42.667h149.333l-119.467-115.2c-132.267-132.267-349.867-132.267-482.133 0-34.133 34.133-64 81.067-81.067 128-8.533 21.333-34.133 34.133-55.467 25.6s-34.133-34.133-25.6-55.467c21.333-59.733 55.467-115.2 102.4-157.867 85.333-85.333 192-123.733 302.933-123.733s217.6 42.667 298.667 123.733l128 119.467v-157.867c0-25.6 17.067-42.667 42.667-42.667s42.667 17.067 42.667 42.667v256c-4.267 25.6-21.333 42.667-46.933 42.667z" />
<glyph unicode="&#xe92e;" glyph-name="send" data-tags="send" d="M960 448c0 17.067-8.533 29.867-25.6 38.4l-810.667 392.533c-17.067 8.533-34.133 4.267-46.933-8.533s-17.067-29.867-12.8-46.933l145.067-375.467-145.067-375.467c-4.267-17.067-4.267-34.133 8.533-46.933 0 0 0 0 0 0 12.8-12.8 29.867-12.8 46.933-8.533l819.2 392.533c12.8 8.533 21.333 21.333 21.333 38.4zM733.867 490.667h-448l-102.4 264.533 550.4-264.533zM183.467 140.8l102.4 264.533h448l-550.4-264.533z" />
<glyph unicode="&#xe92f;" glyph-name="setting" data-tags="setting" d="M512 277.333c-93.867 0-170.667 76.8-170.667 170.667s76.8 170.667 170.667 170.667c93.867 0 170.667-76.8 170.667-170.667s-76.8-170.667-170.667-170.667zM512 533.333c-46.933 0-85.333-38.4-85.333-85.333s38.4-85.333 85.333-85.333c46.933 0 85.333 38.4 85.333 85.333s-38.4 85.333-85.333 85.333zM516.267-64c-72.533 0-128 55.467-128 128 0 12.8-8.533 25.6-17.067 29.867-12.8 4.267-25.6 4.267-34.133-4.267-51.2-51.2-132.267-51.2-183.467-4.267-25.6 25.6-38.4 55.467-38.4 89.6s12.8 68.267 38.4 89.6c8.533 8.533 12.8 21.333 8.533 34.133-4.267 8.533-12.8 17.067-25.6 17.067h-8.533c-72.533 0-128 55.467-128 128s55.467 128 128 128c12.8 0 25.6 8.533 29.867 17.067 4.267 12.8 4.267 25.6-4.267 34.133-55.467 51.2-55.467 132.267-4.267 183.467s132.267 51.2 179.2 0c12.8-8.533 25.6-12.8 34.133-8.533 4.267 0 4.267 0 8.533 4.267 8.533 4.267 12.8 12.8 12.8 21.333v8.533c0 72.533 55.467 128 128 128s128-55.467 128-128c0-12.8 8.533-25.6 17.067-29.867 12.8-4.267 21.333-4.267 29.867 4.267 25.6 25.6 59.733 38.4 93.867 38.4s64-12.8 89.6-38.4c51.2-51.2 51.2-132.267 0-179.2-8.533-8.533-12.8-21.333-8.533-34.133 0-4.267 0-4.267 4.267-8.533s12.8-8.533 21.333-8.533h8.533c72.533 0 128-55.467 128-128s-55.467-128-128-128c-12.8 0-25.6-8.533-29.867-17.067s-4.267-21.333 4.267-29.867c51.2-51.2 51.2-132.267 4.267-183.467-51.2-51.2-132.267-51.2-179.2 0-8.533 8.533-21.333 12.8-34.133 8.533-8.533-4.267-17.067-12.8-17.067-25.6v-8.533c0-72.533-59.733-128-128-128zM354.133 179.2c17.067 0 29.867-4.267 46.933-8.533 42.667-17.067 68.267-55.467 72.533-102.4v-4.267c0-25.6 17.067-42.667 42.667-42.667s42.667 17.067 42.667 42.667v8.533c0 46.933 25.6 85.333 68.267 102.4s89.6 8.533 123.733-21.333c12.8-12.8 21.333-17.067 34.133-17.067s21.333 4.267 29.867 12.8c8.533 8.533 12.8 17.067 12.8 29.867s-4.267 21.333-12.8 29.867c-34.133 34.133-42.667 85.333-25.6 128s59.733 68.267 102.4 68.267c25.6 0 46.933 17.067 46.933 42.667s-17.067 42.667-42.667 42.667h-8.533c-46.933 0-85.333 25.6-102.4 68.267 0 4.267-4.267 8.533-4.267 12.8-12.8 38.4-4.267 85.333 25.6 115.2 21.333 21.333 21.333 46.933 4.267 64-8.533 8.533-17.067 12.8-29.867 12.8s-21.333-4.267-29.867-12.8c-34.133-34.133-85.333-42.667-128-25.6s-68.267 59.733-68.267 102.4c0 29.867-17.067 46.933-42.667 46.933s-42.667-17.067-42.667-42.667v-8.533c0-46.933-25.6-85.333-68.267-102.4-4.267 0-8.533-4.267-12.8-4.267-38.4-12.8-85.333-4.267-115.2 25.6-21.333 21.333-46.933 21.333-64 4.267s-17.067-42.667 0-59.733c34.133-34.133 42.667-85.333 25.6-128s-55.467-68.267-102.4-72.533h-4.267c-25.6 0-42.667-17.067-42.667-42.667s17.067-42.667 42.667-42.667h8.533c46.933 0 85.333-25.6 102.4-68.267s8.533-89.6-21.333-123.733c-12.8-12.8-17.067-21.333-17.067-34.133s4.267-21.333 12.8-29.867c17.067-17.067 42.667-17.067 59.733 0 25.6 25.6 55.467 34.133 81.067 34.133z" />
<glyph unicode="&#xe930;" glyph-name="share" data-tags="share" d="M768 320c-46.933 0-89.6-21.333-119.467-51.2l-226.133 132.267c0 17.067 4.267 29.867 4.267 46.933s-4.267 29.867-8.533 46.933l226.133 132.267c34.133-29.867 76.8-51.2 123.733-51.2 93.867 0 170.667 76.8 170.667 170.667s-76.8 170.667-170.667 170.667-170.667-76.8-170.667-170.667c0-17.067 4.267-29.867 8.533-46.933l-230.4-132.267c-29.867 29.867-72.533 51.2-119.467 51.2-93.867 0-170.667-76.8-170.667-170.667s76.8-170.667 170.667-170.667c46.933 0 89.6 21.333 119.467 51.2l226.133-132.267c0-17.067-4.267-29.867-4.267-46.933 0-93.867 76.8-170.667 170.667-170.667s170.667 76.8 170.667 170.667-76.8 170.667-170.667 170.667zM768 832c46.933 0 85.333-38.4 85.333-85.333s-38.4-85.333-85.333-85.333-85.333 38.4-85.333 85.333 38.4 85.333 85.333 85.333zM256 362.667c-46.933 0-85.333 38.4-85.333 85.333s38.4 85.333 85.333 85.333 85.333-38.4 85.333-85.333c0-46.933-38.4-85.333-85.333-85.333zM768 64c-46.933 0-85.333 38.4-85.333 85.333s38.4 85.333 85.333 85.333 85.333-38.4 85.333-85.333-38.4-85.333-85.333-85.333z" />
<glyph unicode="&#xe931;" glyph-name="social-clubhouse" data-tags="clubhouse" d="M942.933 648.533c-34.133 29.867-85.333 34.133-123.733 12.8-29.867-17.067-59.733-42.667-81.067-72.533-8.533 25.6-12.8 51.2-17.067 81.067-21.333 93.867-38.4 187.733-110.933 217.6-29.867 12.8-68.267 12.8-106.667-4.267-12.8 17.067-25.6 34.133-46.933 46.933-42.667 12.8-85.333 8.533-119.467-12.8-4.267 0-8.533-4.267-12.8-8.533-21.333-25.6-34.133-55.467-38.4-85.333-59.733 0-93.867-25.6-110.933-51.2-12.8-21.333-17.067-51.2-17.067-81.067-51.2-4.267-76.8-29.867-93.867-55.467-72.533-106.667 29.867-307.2 29.867-307.2 72.533-140.8 204.8-302.933 371.2-354.133 34.133-8.533 68.267-17.067 98.133-17.067 55.467 0 106.667 12.8 162.133 42.667 140.8 76.8 174.933 230.4 204.8 362.667 12.8 55.467 25.6 106.667 42.667 153.6 21.333 46.933 8.533 98.133-29.867 132.267zM388.267 849.067c8.533 4.267 21.333 4.267 29.867 0 4.267-4.267 8.533-8.533 8.533-17.067 12.8-102.4 42.667-200.533 85.333-290.133-17.067-8.533-38.4-17.067-51.2-25.6-4.267 12.8-12.8 25.6-17.067 38.4-46.933 93.867-102.4 221.867-55.467 294.4zM896 546.133c-21.333-51.2-34.133-110.933-46.933-162.133-29.867-128-55.467-247.467-166.4-307.2-59.733-34.133-128-42.667-192-21.333-140.8 42.667-256 187.733-320 311.467-34.133 64-64 179.2-34.133 221.867 4.267 4.267 8.533 12.8 29.867 17.067 17.067-68.267 51.2-136.533 72.533-166.4 8.533-12.8 21.333-17.067 34.133-17.067 8.533 0 17.067 4.267 25.6 8.533 17.067 12.8 21.333 38.4 8.533 59.733-42.667 59.733-85.333 196.267-59.733 234.667 8.533 12.8 25.6 12.8 38.4 12.8 12.8-76.8 46.933-153.6 81.067-221.867 8.533-21.333 17.067-42.667 25.6-59.733-4.267-4.267-12.8-12.8-17.067-17.067-17.067-17.067-12.8-42.667 4.267-59.733 8.533-8.533 17.067-12.8 29.867-12.8s21.333 4.267 29.867 12.8c46.933 51.2 85.333 81.067 170.667 93.867 21.333 4.267 38.4 25.6 38.4 46.933-4.267 21.333-25.6 38.4-46.933 38.4 0 0 0 0 0 0-34.133 72.533-59.733 153.6-76.8 238.933 21.333 12.8 42.667 17.067 51.2 8.533 29.867-12.8 46.933-98.133 59.733-157.867s25.6-119.467 51.2-157.867c0 0 0-4.267 0-4.267-8.533-8.533-21.333-17.067-34.133-25.6-38.4-29.867-89.6-68.267-85.333-136.533 0-25.6 21.333-42.667 46.933-38.4 25.6 0 42.667 21.333 38.4 46.933 0 21.333 17.067 34.133 51.2 64 17.067 12.8 38.4 29.867 55.467 46.933 4.267 4.267 8.533 12.8 8.533 21.333 4.267 34.133 46.933 98.133 93.867 123.733 12.8 8.533 21.333 0 25.6-4.267 8.533-8.533 12.8-21.333 8.533-38.4z" />
<glyph unicode="&#xe932;" glyph-name="social-fecebook" data-tags="social-fecebook" d="M554.667-21.333h-170.667c-23.467 0-42.667 19.2-42.667 42.667v298.667h-85.333c-23.467 0-42.667 19.2-42.667 42.667v170.667c0 23.467 19.2 42.667 42.667 42.667h85.333v85.333c0 141.227 114.773 256 256 256h128c23.467 0 42.667-19.2 42.667-42.667v-170.667c0-23.467-19.2-42.667-42.667-42.667h-128v-85.333h128c13.227 0 25.6-5.973 33.707-16.213s11.093-23.893 7.68-36.693l-42.667-170.667c-4.693-19.2-21.76-32.427-41.387-32.427h-85.333v-298.667c0-23.467-19.2-42.667-42.667-42.667zM426.667 64h85.333v298.667c0 23.467 19.2 42.667 42.667 42.667h94.72l21.333 85.333h-116.053c-23.467 0-42.667 19.2-42.667 42.667v128c0 46.933 38.4 85.333 85.333 85.333h85.333v85.333h-85.333c-94.293 0-170.667-76.373-170.667-170.667v-128c0-23.467-19.2-42.667-42.667-42.667h-85.333v-85.333h85.333c23.467 0 42.667-19.2 42.667-42.667v-298.667z" />
<glyph unicode="&#xe933;" glyph-name="social-link" data-tags="social-link" d="M768 192h-128c-23.467 0-42.667 19.2-42.667 42.667s19.2 42.667 42.667 42.667h128c94.293 0 170.667 76.373 170.667 170.667s-76.373 170.667-170.667 170.667h-128c-23.467 0-42.667 19.2-42.667 42.667s19.2 42.667 42.667 42.667h128c141.227 0 256-114.773 256-256s-114.773-256-256-256zM384 192h-128c-141.227 0-256 114.773-256 256s114.773 256 256 256h128c23.467 0 42.667-19.2 42.667-42.667s-19.2-42.667-42.667-42.667h-128c-94.293 0-170.667-76.373-170.667-170.667s76.373-170.667 170.667-170.667h128c23.467 0 42.667-19.2 42.667-42.667s-19.2-42.667-42.667-42.667zM725.333 448c0 23.467-19.2 42.667-42.667 42.667h-341.333c-23.467 0-42.667-19.2-42.667-42.667s19.2-42.667 42.667-42.667h341.333c23.467 0 42.667 19.2 42.667 42.667z" />
<glyph unicode="&#xe934;" glyph-name="social-linkedin" data-tags="social-linkedin" d="M938.667 21.333h-170.667c-23.467 0-42.667 19.2-42.667 42.667v298.667c0 23.467-19.2 42.667-42.667 42.667s-42.667-19.2-42.667-42.667v-298.667c0-23.467-19.2-42.667-42.667-42.667h-170.667c-23.467 0-42.667 19.2-42.667 42.667v298.667c0 164.693 133.973 298.667 298.667 298.667s298.667-133.973 298.667-298.667v-298.667c0-23.467-19.2-42.667-42.667-42.667zM810.667 106.667h85.333v256c0 117.76-95.573 213.333-213.333 213.333s-213.333-95.573-213.333-213.333v-256h85.333v256c0 70.4 57.6 128 128 128s128-57.6 128-128v-256zM256 21.333h-170.667c-23.467 0-42.667 19.2-42.667 42.667v512c0 23.467 19.2 42.667 42.667 42.667h170.667c23.467 0 42.667-19.2 42.667-42.667v-512c0-23.467-19.2-42.667-42.667-42.667zM128 106.667h85.333v426.667h-85.333v-426.667zM170.667 661.333c-70.4 0-128 57.6-128 128s57.6 128 128 128c70.4 0 128-57.6 128-128s-57.6-128-128-128zM170.667 832c-23.467 0-42.667-19.2-42.667-42.667s19.2-42.667 42.667-42.667c23.467 0 42.667 19.2 42.667 42.667s-19.2 42.667-42.667 42.667z" />
<glyph unicode="&#xe935;" glyph-name="social-mail" data-tags="social-mail" d="M853.333 832h-682.667c-70.4 0-128-57.6-128-128v-512c0-70.4 57.6-128 128-128h682.667c70.4 0 128 57.6 128 128v512c0 70.4-57.6 128-128 128zM170.667 746.667h682.667c16.64 0 30.72-9.813 37.973-23.893l-379.307-265.387-379.307 265.387c6.827 14.080 20.907 23.893 37.973 23.893zM853.333 149.333h-682.667c-23.467 0-42.667 19.2-42.667 42.667v430.080l359.68-251.733c7.253-5.12 15.787-7.68 24.32-7.68s17.067 2.56 24.32 7.68l359.68 251.733v-430.080c0-23.467-19.2-42.667-42.667-42.667z" />
<glyph unicode="&#xe936;" glyph-name="social-medium" data-tags="social-medium" d="M276.053 200.107c-136.96 0-247.893 111.36-247.893 247.893s111.36 247.893 247.893 247.893 247.893-111.36 247.893-247.893-111.36-247.893-247.893-247.893zM276.053 610.987c-89.6 0-162.56-72.96-162.56-162.56s72.96-162.56 162.56-162.56 162.56 72.96 162.56 162.56-72.96 162.56-162.56 162.56zM680.533 208.213c-83.2 0-146.347 103.253-146.347 239.787s62.72 240.213 146.347 240.213 146.347-103.253 146.347-240.213-62.72-239.787-146.347-239.787zM680.533 602.88c-21.333 0-61.013-58.88-61.013-154.88s39.253-154.453 61.013-154.453 61.013 58.88 61.013 154.453-39.253 154.88-61.013 154.88zM996.267 448c0 145.067-27.307 218.88-80.64 218.88s-80.64-73.813-80.64-218.88 27.307-218.88 80.64-218.88 80.64 73.813 80.64 218.88z" />
<glyph unicode="&#xe937;" glyph-name="Social-reddit" data-tags="Social-reddit" d="M368.213 465.067c28.277 0 51.2-22.923 51.2-51.2s-22.923-51.2-51.2-51.2c-28.277 0-51.2 22.923-51.2 51.2v0c0 28.277 22.923 51.2 51.2 51.2v0zM654.933 465.067c28.277 0 51.2-22.923 51.2-51.2s-22.923-51.2-51.2-51.2c-28.277 0-51.2 22.923-51.2 51.2v0c0 28.277 22.923 51.2 51.2 51.2v0zM1015.467 490.667c0 0.101 0 0.22 0 0.34 0 77.762-63.038 140.8-140.8 140.8-34.93 0-66.89-12.72-91.499-33.78l0.192 0.16c-64.364 37.958-140.73 62.712-222.324 68.596l-1.676 0.097c4.869 31.456 20.319 58.645 42.533 78.39l0.133 0.116c16.847 11.004 37.474 17.55 59.63 17.55 9.121 0 17.984-1.109 26.459-3.201l-0.756 0.158c6.436-60.956 57.565-108.042 119.692-108.042 66.451 0 120.32 53.869 120.32 120.32s-53.869 120.32-120.32 120.32c-39.969 0-75.386-19.489-97.267-49.482l-0.238-0.342c-14.195 3.74-30.491 5.888-47.288 5.888-41.955 0-80.781-13.397-112.433-36.147l0.575 0.393c-41.808-36.035-69.873-87.007-75.866-144.542l-0.080-0.952c-86.513-4.275-166.359-29.241-235.811-70.009l2.424 1.315c-24.284 21.204-56.267 34.133-91.271 34.133-0.013 0-0.025 0-0.038 0h0.002c-77.995-0.004-141.22-63.231-141.22-141.227 0-51.213 27.259-96.058 68.059-120.82l0.628-0.354c-1.279-10.040-2.052-21.738-2.133-33.6l-0.001-0.107c0-184.32 196.267-334.080 437.333-334.080s437.76 149.76 437.76 334.080c-0.004 12.198-0.934 24.176-2.725 35.871l0.165-1.311c40.676 24.949 67.486 69.038 67.84 119.415v0.052zM805.547 808.107c1.165 0.136 2.514 0.213 3.881 0.213 19.558 0 35.413-15.855 35.413-35.413s-15.855-35.413-35.413-35.413c-1.367 0-2.717 0.077-4.044 0.228l0.162-0.015c-17.816 2.022-31.532 17.009-31.532 35.2s13.716 33.178 31.37 35.185l0.162 0.015zM888.32 437.76c-11.377-2.961-20.702-10.198-26.344-19.851l-0.109-0.202c-3.473-6.038-5.522-13.276-5.522-20.993 0-4.226 0.614-8.308 1.759-12.163l-0.077 0.302c4.188-14.414 6.671-30.992 6.826-48.126l0.001-0.087c0-137.387-158.293-248.747-352.427-248.747s-352 111.36-352 248.747c0 0.109 0 0.237 0 0.366 0 16.902 2.495 33.222 7.135 48.611l-0.308-1.19c1.029 3.491 1.622 7.502 1.622 11.651 0 7.975-2.188 15.439-5.996 21.824l0.108-0.195c-5.919 9.766-15.395 16.874-26.589 19.568l-0.291 0.059c-24.434 6.333-42.187 28.186-42.187 54.187 0 30.85 24.994 55.863 55.837 55.893h0.003c20.084-0.16 37.608-10.969 47.22-27.053l0.14-0.253c6.193-10.022 16.167-17.203 27.886-19.58l0.274-0.046c2.36-0.463 5.073-0.728 7.848-0.728 9.58 0 18.422 3.157 25.543 8.488l-0.111-0.080c68.536 48.136 153.703 76.926 245.594 76.926 3.659 0 7.307-0.046 10.944-0.136l-0.538 0.011c2.613 0.057 5.693 0.090 8.78 0.090 91.518 0 176.352-28.613 246.046-77.382l-1.386 0.919c6.92-5.044 15.592-8.070 24.971-8.070 2.94 0 5.811 0.297 8.584 0.864l-0.275-0.047c11.93 2.321 21.891 9.348 28.057 19.027l0.103 0.173c9.714 16.108 27.067 26.747 46.914 26.88h0.019c30.361-0.657 54.722-25.424 54.722-55.881 0-25.438-16.993-46.907-40.247-53.674l-0.395-0.098zM712.533 252.587c3.068 5.756 4.871 12.587 4.871 19.84 0 23.662-19.182 42.844-42.844 42.844-16.409 0-30.664-9.225-37.861-22.772l-0.112-0.232c-13.227-25.6-69.12-51.627-140.373-51.627s-128 26.027-140.373 51.627c-7.309 13.779-21.564 23.004-37.973 23.004-23.662 0-42.844-19.182-42.844-42.844 0-7.253 1.802-14.084 4.983-20.072l-0.112 0.232c30.72-58.88 115.627-97.28 216.32-97.28s186.453 36.693 216.32 97.28z" />
<glyph unicode="&#xe938;" glyph-name="social-share" data-tags="social-share" d="M768 319.573c-47.36 0-90.027-19.2-121.173-50.347l-227.413 132.693c4.267 14.933 7.253 29.867 7.253 46.080s-2.987 31.147-7.253 46.080l227.413 132.693c31.147-31.147 73.813-50.773 121.173-50.773 94.293 0 170.667 76.373 170.667 170.667s-76.373 170.667-170.667 170.667c-94.293 0-170.667-76.373-170.667-170.667 0-16.213 2.987-31.147 7.253-46.080l-227.413-132.693c-31.147 31.147-73.813 50.773-121.173 50.773-94.293 0-170.667-76.373-170.667-170.667s76.373-170.667 170.667-170.667c47.36 0 90.027 19.627 121.173 50.773l227.413-132.693c-4.267-14.933-7.253-29.867-7.253-46.080 0-94.293 76.373-170.667 170.667-170.667s170.667 76.373 170.667 170.667c0 94.293-76.373 170.667-170.667 170.667v-0.427zM768 831.573c46.933 0 85.333-38.4 85.333-85.333s-38.4-85.333-85.333-85.333c-46.933 0-85.333 38.4-85.333 85.333s38.4 85.333 85.333 85.333zM256 362.24c-46.933 0-85.333 38.4-85.333 85.333s38.4 85.333 85.333 85.333c46.933 0 85.333-38.4 85.333-85.333s-38.4-85.333-85.333-85.333zM768 63.573c-46.933 0-85.333 38.4-85.333 85.333s38.4 85.333 85.333 85.333c46.933 0 85.333-38.4 85.333-85.333s-38.4-85.333-85.333-85.333z" />
<glyph unicode="&#xe939;" glyph-name="social-telegram" data-tags="social-telegram" d="M829.026-16.943c-7.68 0-15.36 2.133-22.187 6.4l-341.333 210.347c-12.373 7.68-19.627 20.48-20.053 34.987s6.4 27.733 17.92 36.267l150.187 106.667c19.2 13.653 46.080 8.96 59.307-10.24s8.96-45.653-10.24-59.307l-97.707-69.547 221.44-136.533c7.253 193.28 60.587 481.706 87.893 619.092l-717.227-279.039 192.853-81.493 311.893 205.226c19.627 12.8 46.080 7.68 58.88-12.373s7.68-46.079-12.373-58.879l-331.093-218.027c-11.947-7.68-26.88-9.387-40.107-3.84l-311.040 131.413c-16.213 6.827-26.453 22.613-26.027 40.107s11.093 32.853 27.307 39.253l889.173 345.599c14.507 5.547 31.147 2.987 43.093-7.253s17.493-26.027 14.080-41.387c-1.28-5.12-112.64-529.066-101.973-752.639 0.853-15.787-7.253-30.72-20.907-38.827-6.827-3.84-14.080-5.973-21.76-5.973z" />
<glyph unicode="&#xe93a;" glyph-name="social-twitter" data-tags="social-twitter" d="M341.996 49.344c-107.093 0-217.173 28.587-320 85.76-17.493 9.387-25.6 29.867-20.48 48.64s23.040 32.427 42.667 31.147c69.12-2.56 136.107 10.667 197.547 38.4-151.893 94.72-191.147 227.84-195.84 328.962-5.547 122.027 37.973 221.013 39.68 225.28 6.4 14.080 19.627 23.467 34.987 25.173s30.293-5.547 39.253-17.92c68.693-97.707 175.787-158.293 293.119-167.253 0 65.707 28.16 128 78.080 171.52 45.653 39.68 103.68 59.307 165.12 55.040 50.773-3.413 97.707-23.467 135.253-56.747 32.853 12.373 64.427 28.587 93.013 49.067 14.507 10.24 33.707 10.24 48.64 0 14.507-9.813 21.76-28.16 17.493-45.227-14.080-58.027-42.24-111.36-81.92-155.733 0.427-6.4 0.853-12.8 0.853-19.627 0-226.562-100.267-415.148-275.2-517.975-89.173-52.48-189.44-78.507-292.266-78.507zM211.436 150.891c131.84-32.427 266.666-15.787 379.732 50.773 148.053 87.040 232.96 249.173 232.96 444.588 0 8.96-0.853 17.493-2.56 26.027-2.56 14.080 1.707 28.587 11.947 38.4 8.107 7.68 15.36 16.213 22.187 24.747-7.68-2.56-15.787-5.547-23.467-7.68-15.787-4.693-33.28 0-44.373 12.8-24.747 28.587-59.307 45.653-97.28 48.64-37.973 2.56-74.24-9.813-102.827-34.56-31.573-27.307-49.493-66.987-48.64-108.8v-41.813c0-23.040-18.347-42.24-41.387-42.667-135.252-3.84-261.972 48.64-354.559 142.507-23.893-105.387-31.573-304.215 206.080-409.602 14.080-6.4 23.893-19.627 25.173-35.413s-5.547-30.293-18.347-39.253c-44.8-30.293-93.013-53.333-143.787-68.267l-0.853-0.427z" />
<glyph unicode="&#xe93b;" glyph-name="social-youtube" data-tags="social-youtube" d="M512 89.173c-29.44 0-290.133 0.427-363.947 20.053-52.48 14.507-93.867 55.467-108.8 107.52-14.507 78.507-20.907 154.88-20.48 230.4 0 74.667 6.4 150.187 19.627 224.427 14.080 56.32 55.467 99.413 108.8 114.347 74.24 20.053 334.933 20.48 364.373 20.48s289.707-0.427 363.093-18.347c54.613-15.36 96.427-58.453 109.653-112.213 0-0.853 0-1.707 0.427-2.56 13.653-74.667 20.053-150.613 19.627-226.56 0-74.24-6.4-149.333-19.627-222.72-14.080-56.32-55.467-99.413-108.8-114.347-74.24-19.627-334.933-20.48-364.373-20.48zM512 724.48c-111.36 0-294.827-4.693-342.613-17.493-24.747-6.827-43.947-27.307-50.347-52.48-11.947-66.56-17.92-136.96-17.493-206.933-0.427-71.253 5.547-142.080 18.347-212.053 5.973-20.48 25.6-39.68 49.92-46.507 47.787-12.8 230.827-17.493 342.613-17.493s294.827 4.693 342.613 17.493c24.32 6.827 43.947 27.307 50.347 52.48 11.947 65.707 17.92 136.107 17.92 205.653 0.427 70.4-5.547 141.227-17.92 210.347-6.827 24.747-26.027 44.373-50.773 51.2-52.48 12.8-264.96 15.787-342.187 15.787zM416 264.96c-7.253 0-14.933 1.707-21.333 5.973-13.227 7.68-21.333 21.76-21.333 36.693v279.040c0 15.36 8.107 29.44 21.333 36.693s29.44 7.68 42.667 0l245.333-139.52c13.227-7.68 21.76-21.76 21.76-37.12s-8.107-29.44-21.76-37.12l-245.333-139.52c-6.4-3.84-13.653-5.547-20.907-5.547zM458.667 513.28v-132.267l116.48 66.133-116.48 66.133z" />
<glyph unicode="&#xe93c;" glyph-name="sun" data-tags="sun" d="M512 192c-140.8 0-256 115.2-256 256s115.2 256 256 256 256-115.2 256-256-115.2-256-256-256zM512 618.667c-93.867 0-170.667-76.8-170.667-170.667s76.8-170.667 170.667-170.667c93.867 0 170.667 76.8 170.667 170.667s-76.8 170.667-170.667 170.667zM554.667 832v85.333c0 25.6-17.067 42.667-42.667 42.667s-42.667-17.067-42.667-42.667v-85.333c0-25.6 17.067-42.667 42.667-42.667s42.667 17.067 42.667 42.667zM554.667-21.333v85.333c0 25.6-17.067 42.667-42.667 42.667s-42.667-17.067-42.667-42.667v-85.333c0-25.6 17.067-42.667 42.667-42.667s42.667 17.067 42.667 42.667zM268.8 691.2c17.067 17.067 17.067 42.667 0 59.733l-59.733 59.733c-17.067 17.067-42.667 17.067-59.733 0s-17.067-42.667 0-59.733l59.733-59.733c8.533-8.533 21.333-12.8 29.867-12.8s25.6 4.267 29.867 12.8zM874.667 85.333c17.067 17.067 17.067 42.667 0 59.733l-59.733 59.733c-17.067 17.067-42.667 17.067-59.733 0s-17.067-42.667 0-59.733l59.733-59.733c8.533-8.533 21.333-12.8 29.867-12.8s21.333 4.267 29.867 12.8zM170.667 448c0 25.6-17.067 42.667-42.667 42.667h-85.333c-25.6 0-42.667-17.067-42.667-42.667s17.067-42.667 42.667-42.667h85.333c25.6 0 42.667 17.067 42.667 42.667zM1024 448c0 25.6-17.067 42.667-42.667 42.667h-85.333c-25.6 0-42.667-17.067-42.667-42.667s17.067-42.667 42.667-42.667h85.333c25.6 0 42.667 17.067 42.667 42.667zM209.067 85.333l59.733 59.733c17.067 17.067 17.067 42.667 0 59.733s-42.667 17.067-59.733 0l-59.733-59.733c-17.067-17.067-17.067-42.667 0-59.733 8.533-8.533 21.333-12.8 29.867-12.8s21.333 4.267 29.867 12.8zM814.933 691.2l59.733 59.733c17.067 17.067 17.067 42.667 0 59.733s-42.667 17.067-59.733 0l-59.733-59.733c-17.067-17.067-17.067-42.667 0-59.733 8.533-8.533 21.333-12.8 29.867-12.8s21.333 4.267 29.867 12.8z" />
<glyph unicode="&#xe93d;" glyph-name="text" data-tags="text" d="M883.2 648.533l-256 256c-8.533 8.533-17.067 12.8-29.867 12.8h-341.333c-72.533 0-128-55.467-128-128v-682.667c0-72.533 55.467-128 128-128h512c72.533 0 128 55.467 128 128v512c0 12.8-4.267 21.333-12.8 29.867zM640 772.267l110.933-110.933h-110.933v110.933zM768 64h-512c-25.6 0-42.667 17.067-42.667 42.667v682.667c0 25.6 17.067 42.667 42.667 42.667h298.667v-213.333c0-25.6 17.067-42.667 42.667-42.667h213.333v-469.333c0-25.6-17.067-42.667-42.667-42.667zM682.667 362.667h-341.333c-25.6 0-42.667 17.067-42.667 42.667s17.067 42.667 42.667 42.667h341.333c25.6 0 42.667-17.067 42.667-42.667s-17.067-42.667-42.667-42.667zM682.667 192h-341.333c-25.6 0-42.667 17.067-42.667 42.667s17.067 42.667 42.667 42.667h341.333c25.6 0 42.667-17.067 42.667-42.667s-17.067-42.667-42.667-42.667zM426.667 533.333h-85.333c-25.6 0-42.667 17.067-42.667 42.667s17.067 42.667 42.667 42.667h85.333c25.6 0 42.667-17.067 42.667-42.667s-17.067-42.667-42.667-42.667z" />
<glyph unicode="&#xe93e;" glyph-name="timeline" data-tags="timeline" d="M554.667-21.333v256c0 0 0 4.267 0 4.267 98.133 21.333 170.667 106.667 170.667 209.067s-72.533 187.733-170.667 209.067c0 0 0 4.267 0 4.267v256c0 25.6-17.067 42.667-42.667 42.667s-42.667-17.067-42.667-42.667v-256c0 0 0-4.267 0-4.267-98.133-21.333-170.667-106.667-170.667-209.067s72.533-187.733 170.667-209.067c0 0 0-4.267 0-4.267v-256c0-25.6 17.067-42.667 42.667-42.667s42.667 21.333 42.667 42.667zM384 448c0 72.533 55.467 128 128 128s128-55.467 128-128-55.467-128-128-128-128 59.733-128 128z" />
<glyph unicode="&#xe93f;" glyph-name="trash" data-tags="trash" d="M896 746.667h-170.667v42.667c0 72.533-55.467 128-128 128h-170.667c-72.533 0-128-55.467-128-128v-42.667h-170.667c-25.6 0-42.667-17.067-42.667-42.667s17.067-42.667 42.667-42.667h42.667v-554.667c0-72.533 55.467-128 128-128h426.667c72.533 0 128 55.467 128 128v554.667h42.667c25.6 0 42.667 17.067 42.667 42.667s-17.067 42.667-42.667 42.667zM384 789.333c0 25.6 17.067 42.667 42.667 42.667h170.667c25.6 0 42.667-17.067 42.667-42.667v-42.667h-256v42.667zM768 106.667c0-25.6-17.067-42.667-42.667-42.667h-426.667c-25.6 0-42.667 17.067-42.667 42.667v554.667h512v-554.667z" />
<glyph unicode="&#xe940;" glyph-name="trending-up" data-tags="trending-up" d="M981.333 746.667h-256c-25.6 0-42.667-17.067-42.667-42.667s17.067-42.667 42.667-42.667h153.6l-302.933-302.933-183.467 183.467c-17.067 17.067-42.667 17.067-59.733 0l-320-320c-17.067-17.067-17.067-42.667 0-59.733 8.533-8.533 17.067-12.8 29.867-12.8s21.333 4.267 29.867 12.8l290.133 290.133 183.467-183.467c17.067-17.067 42.667-17.067 59.733 0l332.8 332.8v-153.6c0-25.6 17.067-42.667 42.667-42.667s42.667 17.067 42.667 42.667v256c0 25.6-17.067 42.667-42.667 42.667z" />
<glyph unicode="&#xe941;" glyph-name="users" data-tags="users" d="M725.333 21.333c-25.6 0-42.667 17.067-42.667 42.667v85.333c0 72.533-55.467 128-128 128h-341.333c-72.533 0-128-55.467-128-128v-85.333c0-25.6-17.067-42.667-42.667-42.667s-42.667 17.067-42.667 42.667v85.333c0 119.467 93.867 213.333 213.333 213.333h341.333c119.467 0 213.333-93.867 213.333-213.333v-85.333c0-25.6-17.067-42.667-42.667-42.667zM597.333 661.333c0 119.467-93.867 213.333-213.333 213.333s-213.333-93.867-213.333-213.333 93.867-213.333 213.333-213.333 213.333 93.867 213.333 213.333zM512 661.333c0-72.533-55.467-128-128-128s-128 55.467-128 128 55.467 128 128 128 128-55.467 128-128zM1024 64v85.333c0 98.133-64 183.467-162.133 204.8-21.333 4.267-46.933-8.533-51.2-29.867s8.533-46.933 29.867-51.2c55.467-12.8 93.867-64 93.867-123.733v-85.333c0-25.6 17.067-42.667 42.667-42.667s46.933 17.067 46.933 42.667zM691.2 456.533c76.8 21.333 136.533 76.8 153.6 153.6 29.867 115.2-38.4 230.4-153.6 260.267-21.333 4.267-42.667-8.533-51.2-34.133-4.267-21.333 8.533-46.933 29.867-51.2 68.267-17.067 110.933-85.333 93.867-157.867-12.8-46.933-46.933-81.067-93.867-93.867-21.333-4.267-38.4-29.867-29.867-51.2 4.267-21.333 21.333-34.133 42.667-34.133 4.267 4.267 8.533 4.267 8.533 8.533z" />
<glyph unicode="&#xe942;" glyph-name="video-placeholder" data-tags="video-placeholder" d="M674.133 482.133l-234.667 140.8c-12.8 8.533-29.867 8.533-38.4 0s-21.333-21.333-21.333-38.4v-277.333c0-17.067 8.533-29.867 21.333-38.4 8.533-4.267 12.8-4.267 21.333-4.267 4.267 0 12.8 0 21.333 0l234.667 140.8c12.8 8.533 21.333 21.333 21.333 38.4s-12.8 29.867-25.6 38.4zM460.8 379.733v132.267l110.933-64-110.933-68.267zM512-25.6c-260.267 0-473.6 213.333-473.6 473.6s213.333 473.6 473.6 473.6c260.267 0 473.6-213.333 473.6-473.6s-213.333-473.6-473.6-473.6zM512 836.267c-213.333 0-388.267-174.933-388.267-388.267s174.933-388.267 388.267-388.267c213.333 0 388.267 174.933 388.267 388.267s-174.933 388.267-388.267 388.267z" />
<glyph unicode="&#xe943;" glyph-name="folder-move" data-tags="folder-move" d="M853.333 21.333h-682.667c-72.533 0-128 55.467-128 128v597.333c0 72.533 55.467 128 128 128h213.333c12.8 0 25.6-8.533 34.133-17.067l72.533-110.933h362.667c72.533 0 128-55.467 128-128v-469.333c0-72.533-55.467-128-128-128zM170.667 789.333c-25.6 0-42.667-17.067-42.667-42.667v-597.333c0-25.6 17.067-42.667 42.667-42.667h682.667c25.6 0 42.667 17.067 42.667 42.667v469.333c0 25.6-17.067 42.667-42.667 42.667h-384c-12.8 0-25.6 8.533-34.133 17.067l-72.533 110.933h-192zM772.267 396.8l-153.6 128c-17.067 17.067-46.933 12.8-59.733-4.267-17.067-17.067-12.8-46.933 4.267-59.733l64-51.2h-349.867c-25.6 0-42.667-17.067-42.667-42.667s17.067-42.667 42.667-42.667h341.333l-55.467-42.667c-17.067-12.8-21.333-42.667-8.533-59.733 8.533-12.8 21.333-17.067 34.133-17.067 8.533 0 17.067 4.267 25.6 8.533l153.6 119.467c8.533 8.533 17.067 21.333 17.067 34.133 4.267 8.533-4.267 21.333-12.8 29.867z" />
<glyph unicode="&#xe944;" glyph-name="upload" data-tags="upload" d="M682.667 234.667c-12.8 0-21.333 4.267-29.867 12.8l-140.8 140.8-140.8-140.8c-17.067-17.067-42.667-17.067-59.733 0s-17.067 42.667 0 59.733l170.667 170.667c17.067 17.067 42.667 17.067 59.733 0l170.667-170.667c17.067-17.067 17.067-42.667 0-59.733-8.533-8.533-17.067-12.8-29.867-12.8zM870.4 132.267c-17.067 0-29.867 8.533-38.4 21.333-12.8 21.333-4.267 46.933 17.067 59.733 38.4 21.333 68.267 59.733 81.067 102.4s8.533 89.6-12.8 128c-29.867 55.467-85.333 89.6-149.333 89.6h-55.467c-21.333 0-38.4 12.8-42.667 29.867-42.667 157.867-204.8 256-362.667 213.333-76.8-17.067-140.8-64-179.2-136.533-42.667-68.267-51.2-145.067-34.133-226.133 12.8-46.933 34.133-89.6 64-123.733 17.067-17.067 12.8-42.667-4.267-59.733s-42.667-12.8-59.733 4.267c-38.4 46.933-68.267 98.133-85.333 157.867-25.6 98.133-12.8 200.533 42.667 290.133s136.533 149.333 234.667 174.933c192 51.2 392.533-59.733 456.533-243.2h25.6c93.867 0 179.2-51.2 226.133-132.267 34.133-59.733 38.4-128 21.333-196.267-21.333-64-64-119.467-123.733-153.6-8.533 4.267-12.8 0-21.333 0zM712.533 307.2l-170.667 170.667c-17.067 17.067-42.667 17.067-59.733 0l-170.667-170.667c-17.067-17.067-17.067-42.667 0-59.733s42.667-17.067 59.733 0l98.133 98.133v-281.6c0-25.6 17.067-42.667 42.667-42.667s42.667 17.067 42.667 42.667v281.6l98.133-98.133c8.533-8.533 21.333-12.8 29.867-12.8 12.8 0 21.333 4.267 29.867 12.8 17.067 17.067 17.067 42.667 0 59.733z" />
<glyph unicode="&#xe945;" glyph-name="align-left" data-tags="align-left" d="M725.333 490.667h-597.333c-25.6 0-42.667 17.067-42.667 42.667s17.067 42.667 42.667 42.667h597.333c25.6 0 42.667-17.067 42.667-42.667s-17.067-42.667-42.667-42.667zM938.667 704c0 25.6-17.067 42.667-42.667 42.667h-768c-25.6 0-42.667-17.067-42.667-42.667s17.067-42.667 42.667-42.667h768c25.6 0 42.667 17.067 42.667 42.667zM938.667 362.667c0 25.6-17.067 42.667-42.667 42.667h-768c-25.6 0-42.667-17.067-42.667-42.667s17.067-42.667 42.667-42.667h768c25.6 0 42.667 17.067 42.667 42.667zM768 192c0 25.6-17.067 42.667-42.667 42.667h-597.333c-25.6 0-42.667-17.067-42.667-42.667s17.067-42.667 42.667-42.667h597.333c25.6 0 42.667 17.067 42.667 42.667z" />
<glyph unicode="&#xe946;" glyph-name="align-right" data-tags="align-right" d="M896 490.667h-597.333c-25.6 0-42.667 17.067-42.667 42.667s17.067 42.667 42.667 42.667h597.333c25.6 0 42.667-17.067 42.667-42.667s-17.067-42.667-42.667-42.667zM938.667 704c0 25.6-17.067 42.667-42.667 42.667h-768c-25.6 0-42.667-17.067-42.667-42.667s17.067-42.667 42.667-42.667h768c25.6 0 42.667 17.067 42.667 42.667zM938.667 362.667c0 25.6-17.067 42.667-42.667 42.667h-768c-25.6 0-42.667-17.067-42.667-42.667s17.067-42.667 42.667-42.667h768c25.6 0 42.667 17.067 42.667 42.667zM938.667 192c0 25.6-17.067 42.667-42.667 42.667h-597.333c-25.6 0-42.667-17.067-42.667-42.667s17.067-42.667 42.667-42.667h597.333c25.6 0 42.667 17.067 42.667 42.667z" />
<glyph unicode="&#xe947;" glyph-name="align-center" data-tags="align-center" d="M768 490.667h-512c-25.6 0-42.667 17.067-42.667 42.667s17.067 42.667 42.667 42.667h512c25.6 0 42.667-17.067 42.667-42.667s-17.067-42.667-42.667-42.667zM938.667 704c0 25.6-17.067 42.667-42.667 42.667h-768c-25.6 0-42.667-17.067-42.667-42.667s17.067-42.667 42.667-42.667h768c25.6 0 42.667 17.067 42.667 42.667zM938.667 362.667c0 25.6-17.067 42.667-42.667 42.667h-768c-25.6 0-42.667-17.067-42.667-42.667s17.067-42.667 42.667-42.667h768c25.6 0 42.667 17.067 42.667 42.667zM810.667 192c0 25.6-17.067 42.667-42.667 42.667h-512c-25.6 0-42.667-17.067-42.667-42.667s17.067-42.667 42.667-42.667h512c25.6 0 42.667 17.067 42.667 42.667z" />
<glyph unicode="&#xe948;" glyph-name="align-justify" data-tags="align-justify" d="M896 490.667h-768c-25.6 0-42.667 17.067-42.667 42.667s17.067 42.667 42.667 42.667h768c25.6 0 42.667-17.067 42.667-42.667s-17.067-42.667-42.667-42.667zM938.667 704c0 25.6-17.067 42.667-42.667 42.667h-768c-25.6 0-42.667-17.067-42.667-42.667s17.067-42.667 42.667-42.667h768c25.6 0 42.667 17.067 42.667 42.667zM938.667 362.667c0 25.6-17.067 42.667-42.667 42.667h-768c-25.6 0-42.667-17.067-42.667-42.667s17.067-42.667 42.667-42.667h768c25.6 0 42.667 17.067 42.667 42.667zM938.667 192c0 25.6-17.067 42.667-42.667 42.667h-768c-25.6 0-42.667-17.067-42.667-42.667s17.067-42.667 42.667-42.667h768c25.6 0 42.667 17.067 42.667 42.667z" />
<glyph unicode="&#xe949;" glyph-name="stroke-on" data-tags="stroke-on" d="M853.333 490.667h-42.667v234.667c0 25.6-17.067 42.667-42.667 42.667s-42.667-17.067-42.667-42.667v-234.667h-426.667v234.667c0 25.6-17.067 42.667-42.667 42.667s-42.667-17.067-42.667-42.667v-234.667h-42.667c-25.6 0-42.667-17.067-42.667-42.667s17.067-42.667 42.667-42.667h42.667c12.8-153.6 140.8-277.333 298.667-277.333s285.867 123.733 298.667 277.333h42.667c25.6 0 42.667 17.067 42.667 42.667s-17.067 42.667-42.667 42.667zM512 213.333c-110.933 0-200.533 85.333-209.067 192h422.4c-12.8-106.667-102.4-192-213.333-192z" />
<glyph unicode="&#xe94a;" glyph-name="underline" data-tags="underline" d="M512 234.667c-166.4 0-298.667 132.267-298.667 298.667v298.667c0 25.6 17.067 42.667 42.667 42.667s42.667-17.067 42.667-42.667v-298.667c0-119.467 93.867-213.333 213.333-213.333s213.333 93.867 213.333 213.333v298.667c0 25.6 17.067 42.667 42.667 42.667s42.667-17.067 42.667-42.667v-298.667c0-166.4-132.267-298.667-298.667-298.667zM896 64c0 25.6-17.067 42.667-42.667 42.667h-682.667c-25.6 0-42.667-17.067-42.667-42.667s17.067-42.667 42.667-42.667h682.667c25.6 0 42.667 17.067 42.667 42.667z" />
<glyph unicode="&#xe94b;" glyph-name="italic" data-tags="italic" d="M810.667 832h-384c-25.6 0-42.667-17.067-42.667-42.667s17.067-42.667 42.667-42.667h153.6l-226.133-597.333h-140.8c-25.6 0-42.667-17.067-42.667-42.667s17.067-42.667 42.667-42.667h384c25.6 0 42.667 17.067 42.667 42.667s-17.067 42.667-42.667 42.667h-153.6l221.867 597.333h145.067c25.6 0 42.667 17.067 42.667 42.667s-17.067 42.667-42.667 42.667z" />
<glyph unicode="&#xe94c;" glyph-name="bold" data-tags="bold" d="M742.4 465.067c42.667 38.4 68.267 93.867 68.267 153.6 0 119.467-93.867 213.333-213.333 213.333h-341.333c-25.6 0-42.667-17.067-42.667-42.667v-682.667c0-25.6 17.067-42.667 42.667-42.667h384c119.467 0 213.333 93.867 213.333 213.333 0 81.067-46.933 149.333-110.933 187.733zM298.667 746.667h298.667c72.533 0 128-55.467 128-128s-55.467-128-128-128h-298.667v256zM640 149.333h-341.333v256h341.333c72.533 0 128-55.467 128-128s-55.467-128-128-128z" />
<glyph unicode="&#xe94d;" glyph-name="reply" data-tags="reply" d="M883.2 349.867l-213.333 213.333c-17.067 17.067-42.667 17.067-59.733 0s-17.067-42.667 0-59.733l140.8-140.8h-409.6c-72.533 0-128 55.467-128 128v298.667c0 25.6-17.067 42.667-42.667 42.667s-42.667-17.067-42.667-42.667v-298.667c0-119.467 93.867-213.333 213.333-213.333h409.6l-140.8-140.8c-17.067-17.067-17.067-42.667 0-59.733 8.533-8.533 21.333-12.8 29.867-12.8s21.333 4.267 29.867 12.8l213.333 213.333c17.067 17.067 17.067 42.667 0 59.733z" />
<glyph unicode="&#xe94e;" glyph-name="alert" data-tags="alert" d="M512-21.333c-260.267 0-469.333 209.067-469.333 469.333s209.067 469.333 469.333 469.333 469.333-209.067 469.333-469.333-209.067-469.333-469.333-469.333zM512 832c-213.333 0-384-170.667-384-384s170.667-384 384-384c213.333 0 384 170.667 384 384s-170.667 384-384 384zM554.667 448v170.667c0 25.6-17.067 42.667-42.667 42.667s-42.667-17.067-42.667-42.667v-170.667c0-25.6 17.067-42.667 42.667-42.667s42.667 17.067 42.667 42.667zM554.667 277.333c0 25.6-17.067 42.667-42.667 42.667v0c-25.6 0-42.667-17.067-42.667-42.667s21.333-42.667 42.667-42.667 42.667 17.067 42.667 42.667z" />
<glyph unicode="&#xe94f;" glyph-name="check" data-tags="check" d="M384 192c-12.8 0-21.333 4.267-29.867 12.8l-213.333 213.333c-17.067 17.067-17.067 42.667 0 59.733s42.667 17.067 59.733 0l183.467-183.467 439.467 439.467c17.067 17.067 42.667 17.067 59.733 0s17.067-42.667 0-59.733l-469.333-469.333c-8.533-8.533-17.067-12.8-29.867-12.8z" />
<glyph unicode="&#xe950;" glyph-name="clock" data-tags="clock" d="M512-21.333c-260.267 0-469.333 209.067-469.333 469.333s209.067 469.333 469.333 469.333 469.333-209.067 469.333-469.333-209.067-469.333-469.333-469.333zM512 832c-213.333 0-384-170.667-384-384s170.667-384 384-384c213.333 0 384 170.667 384 384s-170.667 384-384 384zM721.067 345.6c8.533 21.333 0 46.933-17.067 55.467l-149.333 72.533v230.4c0 25.6-17.067 42.667-42.667 42.667s-42.667-17.067-42.667-42.667v-256c0-17.067 8.533-29.867 25.6-38.4l170.667-85.333c4.267-4.267 8.533-4.267 17.067-4.267 17.067 0 29.867 8.533 38.4 25.6z" />
<glyph unicode="&#xe951;" glyph-name="refresh" data-tags="refresh" d="M942.933 806.4c-25.6 0-42.667-17.067-42.667-42.667v-136.533l-110.933 102.4c-42.667 42.667-93.867 72.533-149.333 93.867-200.533 72.533-426.667-38.4-503.467-243.2-4.267-21.333 4.267-46.933 29.867-55.467 21.333-8.533 46.933 4.267 55.467 25.6 55.467 162.133 234.667 247.467 396.8 187.733 42.667-17.067 85.333-42.667 115.2-72.533l102.4-98.133h-128c-25.6 0-42.667-17.067-42.667-42.667s17.067-42.667 42.667-42.667h234.667c25.6 0 42.667 17.067 42.667 42.667v238.933c0 21.333-17.067 42.667-42.667 42.667zM857.6 371.2c-21.333 8.533-46.933-4.267-55.467-25.6-17.067-42.667-42.667-85.333-72.533-115.2-59.733-59.733-136.533-89.6-217.6-89.6v0c-81.067 0-162.133 34.133-221.867 93.867l-102.4 98.133h128c25.6 0 42.667 17.067 42.667 42.667s-17.067 42.667-42.667 42.667h-234.667c-25.6 0-42.667-17.067-42.667-42.667v-234.667c0-25.6 17.067-42.667 42.667-42.667s42.667 17.067 42.667 42.667v136.533l110.933-102.4c76.8-76.8 179.2-115.2 281.6-115.2s204.8 38.4 281.6 115.2c42.667 42.667 72.533 93.867 93.867 149.333 0 12.8-8.533 38.4-34.133 46.933z" />
<glyph unicode="&#xe952;" glyph-name="close" data-tags="close" d="M571.733 447.573l225.707 225.707c16.64 16.64 16.64 43.52 0 60.16s-43.52 16.64-60.16 0l-225.707-225.707-225.707 226.133c-16.64 16.64-43.52 16.64-60.16 0s-16.64-43.52 0-60.16l225.707-225.707-225.707-225.707c-16.64-16.64-16.64-43.52 0-60.16 8.533-8.533 19.2-12.373 30.293-12.373s21.76 4.267 30.293 12.373l225.707 225.707 225.707-225.707c8.533-8.533 19.2-12.373 30.293-12.373s21.76 4.267 30.293 12.373c16.64 16.64 16.64 43.52 0 60.16l-225.707 225.707h-0.853z" />
<glyph unicode="&#xe953;" glyph-name="search" data-tags="search" d="M926.293 94.293l-157.013 157.013c52.48 65.707 84.053 148.907 84.053 239.36 0 211.627-172.373 384-384 384s-384-172.373-384-384 172.373-384 384-384c90.453 0 173.653 31.573 239.36 84.053l157.013-157.013c8.533-8.533 19.2-12.373 30.293-12.373s21.76 4.267 30.293 12.373c16.64 16.64 16.64 43.52 0 60.16v0zM170.667 490.667c0 164.693 133.973 298.667 298.667 298.667s298.667-133.973 298.667-298.667-133.973-298.667-298.667-298.667-298.667 133.973-298.667 298.667z" />
<glyph unicode="&#xe954;" glyph-name="smile" data-tags="smile" d="M512-21.333c-260.267 0-469.333 209.067-469.333 469.333s209.067 469.333 469.333 469.333 469.333-209.067 469.333-469.333-209.067-469.333-469.333-469.333zM512 832c-213.333 0-384-170.667-384-384s170.667-384 384-384c213.333 0 384 170.667 384 384s-170.667 384-384 384zM716.8 337.067c12.8 17.067 8.533 46.933-8.533 59.733s-46.933 8.533-59.733-8.533c0 0-55.467-68.267-136.533-68.267s-136.533 68.267-136.533 68.267c-12.8 17.067-42.667 21.333-59.733 8.533s-21.333-42.667-8.533-59.733c4.267-4.267 76.8-102.4 204.8-102.4s200.533 98.133 204.8 102.4zM426.667 576c0 25.6-17.067 42.667-42.667 42.667v0c-25.6 0-42.667-17.067-42.667-42.667s21.333-42.667 42.667-42.667 42.667 17.067 42.667 42.667zM682.667 576c0 25.6-17.067 42.667-42.667 42.667v0c-25.6 0-42.667-17.067-42.667-42.667s21.333-42.667 42.667-42.667 42.667 17.067 42.667 42.667z" />
<glyph unicode="&#xe955;" glyph-name="minimize" data-tags="minimize" d="M682.667 21.333c-25.6 0-42.667 17.067-42.667 42.667v128c0 72.533 55.467 128 128 128h128c25.6 0 42.667-17.067 42.667-42.667s-17.067-42.667-42.667-42.667h-128c-25.6 0-42.667-17.067-42.667-42.667v-128c0-25.6-17.067-42.667-42.667-42.667zM341.333 21.333c-25.6 0-42.667 17.067-42.667 42.667v128c0 25.6-17.067 42.667-42.667 42.667h-128c-25.6 0-42.667 17.067-42.667 42.667s17.067 42.667 42.667 42.667h128c72.533 0 128-55.467 128-128v-128c0-25.6-17.067-42.667-42.667-42.667zM896 576h-128c-72.533 0-128 55.467-128 128v128c0 25.6 17.067 42.667 42.667 42.667s42.667-17.067 42.667-42.667v-128c0-25.6 17.067-42.667 42.667-42.667h128c25.6 0 42.667-17.067 42.667-42.667s-17.067-42.667-42.667-42.667zM256 576h-128c-25.6 0-42.667 17.067-42.667 42.667s17.067 42.667 42.667 42.667h128c25.6 0 42.667 17.067 42.667 42.667v128c0 25.6 17.067 42.667 42.667 42.667s42.667-17.067 42.667-42.667v-128c0-72.533-55.467-128-128-128z" />
<glyph unicode="&#xe956;" glyph-name="activity" data-tags="activity" d="M640 21.333c-17.067 0-34.133 12.8-38.4 29.867l-217.6 644.267-89.6-264.533c-4.267-12.8-21.333-25.6-38.4-25.6h-170.667c-25.6 0-42.667 17.067-42.667 42.667s17.067 42.667 42.667 42.667h140.8l119.467 354.133c4.267 17.067 21.333 29.867 38.4 29.867s34.133-12.8 38.4-29.867l217.6-644.267 89.6 264.533c4.267 17.067 21.333 29.867 38.4 29.867h170.667c25.6 0 42.667-17.067 42.667-42.667s-17.067-42.667-42.667-42.667h-140.8l-119.467-354.133c-4.267-21.333-21.333-34.133-38.4-34.133z" />
<glyph unicode="&#xe957;" glyph-name="mic" data-tags="mic" d="M512 285.867c-89.6 0-162.133 72.533-162.133 162.133v324.267c0 89.6 72.533 162.133 162.133 162.133s162.133-72.533 162.133-162.133v-324.267c0-89.6-72.533-162.133-162.133-162.133zM512 849.067c-42.667 0-81.067-34.133-81.067-81.067v-320c0-42.667 34.133-81.067 81.067-81.067 42.667 0 81.067 34.133 81.067 81.067v324.267c0 42.667-38.4 76.8-81.067 76.8zM793.6 567.467c-21.333 0-38.4-17.067-38.4-38.4v-81.067c0-132.267-106.667-243.2-243.2-243.2s-243.2 110.933-243.2 243.2v81.067c0 21.333-17.067 38.4-38.4 38.4s-38.4-17.067-38.4-38.4v-81.067c0-162.133 123.733-298.667 281.6-320v-85.333h-123.733c-21.333 0-38.4-17.067-38.4-38.4s17.067-38.4 38.4-38.4h324.267c21.333 0 38.4 17.067 38.4 38.4s-17.067 38.4-38.4 38.4h-119.467v85.333c157.867 21.333 281.6 153.6 281.6 320v81.067c0 21.333-21.333 38.4-42.667 38.4z" />
<glyph unicode="&#xe958;" glyph-name="category" data-tags="category" d="M256 832c0-70.692-57.308-128-128-128s-128 57.308-128 128c0 70.692 57.308 128 128 128s128-57.308 128-128zM256 448c0-70.692-57.308-128-128-128s-128 57.308-128 128c0 70.692 57.308 128 128 128s128-57.308 128-128zM256 64c0-70.692-57.308-128-128-128s-128 57.308-128 128c0 70.692 57.308 128 128 128s128-57.308 128-128zM640 832c0-70.692-57.308-128-128-128s-128 57.308-128 128c0 70.692 57.308 128 128 128s128-57.308 128-128zM640 448c0-70.692-57.308-128-128-128s-128 57.308-128 128c0 70.692 57.308 128 128 128s128-57.308 128-128zM640 64c0-70.692-57.308-128-128-128s-128 57.308-128 128c0 70.692 57.308 128 128 128s128-57.308 128-128zM1024 832c0-70.692-57.308-128-128-128s-128 57.308-128 128c0 70.692 57.308 128 128 128s128-57.308 128-128zM1024 448c0-70.692-57.308-128-128-128s-128 57.308-128 128c0 70.692 57.308 128 128 128s128-57.308 128-128zM1024 64c0-70.692-57.308-128-128-128s-128 57.308-128 128c0 70.692 57.308 128 128 128s128-57.308 128-128z" />
<glyph unicode="&#xe959;" glyph-name="play" data-tags="play" d="M251.733 55.467c-12.8 0-25.6 4.267-38.4 8.533-25.6 12.8-42.667 42.667-42.667 72.533v622.933c0 29.867 17.067 59.733 42.667 72.533s59.733 12.8 81.067-4.267v0l486.4-311.467c21.333-17.067 38.4-42.667 38.4-68.267s-12.8-55.467-38.4-68.267l-486.4-311.467c-12.8-8.533-25.6-12.8-42.667-12.8zM256 755.2v-614.4l477.867 307.2-477.867 307.2zM251.733 759.467v0 0 0z" />
<glyph unicode="&#xe95a;" glyph-name="terminal" data-tags="terminal" d="M170.667 192c-12.8 0-21.333 4.267-29.867 12.8-17.067 17.067-17.067 42.667 0 59.733l226.133 226.133-226.133 226.133c-17.067 17.067-17.067 42.667 0 59.733s42.667 17.067 59.733 0l256-256c17.067-17.067 17.067-42.667 0-59.733l-256-256c-8.533-8.533-17.067-12.8-29.867-12.8zM896 149.333c0 25.6-17.067 42.667-42.667 42.667h-341.333c-25.6 0-42.667-17.067-42.667-42.667s17.067-42.667 42.667-42.667h341.333c25.6 0 42.667 17.067 42.667 42.667z" />
<glyph unicode="&#xe95b;" glyph-name="social-instagram" data-tags="instagram" d="M725.333-21.333h-426.667c-140.8 0-256 115.2-256 256v426.667c0 140.8 115.2 256 256 256h426.667c140.8 0 256-115.2 256-256v-426.667c0-140.8-115.2-256-256-256zM298.667 832c-93.867 0-170.667-76.8-170.667-170.667v-426.667c0-93.867 76.8-170.667 170.667-170.667h426.667c93.867 0 170.667 76.8 170.667 170.667v426.667c0 93.867-76.8 170.667-170.667 170.667h-426.667zM512 234.667c-102.4 0-196.267 76.8-209.067 183.467-17.067 115.2 64 226.133 179.2 243.2 21.333 4.267 42.667 4.267 64 0 93.867-12.8 166.4-85.333 179.2-179.2v0c8.533-55.467-4.267-110.933-38.4-157.867s-85.333-76.8-140.8-85.333c-12.8 0-21.333-4.267-34.133-4.267zM512 576c-4.267 0-12.8 0-17.067 0-68.267-8.533-119.467-76.8-106.667-145.067 8.533-68.267 76.8-119.467 145.067-106.667 34.133 4.267 64 21.333 85.333 51.2s29.867 59.733 25.6 93.867v0c-8.533 55.467-51.2 98.133-106.667 106.667-12.8 0-17.067 0-25.6 0zM789.333 682.667c0 25.6-17.067 42.667-42.667 42.667v0c-25.6 0-42.667-17.067-42.667-42.667s21.333-42.667 42.667-42.667 42.667 17.067 42.667 42.667z" />
<glyph unicode="&#xe95c;" glyph-name="speaker" data-tags="speaker" d="M469.333 106.667c-8.533 0-17.067 4.267-25.6 8.533l-204.8 162.133h-153.6c-25.6 0-42.667 17.067-42.667 42.667v256c0 25.6 17.067 42.667 42.667 42.667h153.6l200.533 162.133c12.8 8.533 29.867 12.8 46.933 4.267s25.6-21.333 25.6-38.4v-597.333c0-17.067-8.533-29.867-25.6-38.4-4.267-4.267-12.8-4.267-17.067-4.267zM128 362.667h128c8.533 0 17.067-4.267 25.6-8.533l145.067-115.2v418.133l-145.067-115.2c-8.533-4.267-17.067-8.533-25.6-8.533h-128v-170.667zM814.933 102.4c-12.8 0-21.333 4.267-29.867 12.8-17.067 17.067-17.067 42.667 0 59.733 149.333 149.333 149.333 392.533 0 541.867-17.067 17.067-17.067 42.667 0 59.733s42.667 17.067 59.733 0c183.467-183.467 183.467-482.133 0-665.6-8.533-4.267-21.333-8.533-29.867-8.533zM661.333 256c-12.8 0-21.333 4.267-29.867 12.8-17.067 17.067-17.067 42.667 0 59.733 68.267 68.267 68.267 174.933 0 243.2-17.067 17.067-17.067 42.667 0 59.733s42.667 17.067 59.733 0c98.133-98.133 98.133-260.267 0-362.667-4.267-8.533-17.067-12.8-29.867-12.8z" />
<glyph unicode="&#xe95d;" glyph-name="maximize-1" data-tags="maximize-1" d="M810.667 21.333h-128c-25.6 0-42.667 17.067-42.667 42.667s17.067 42.667 42.667 42.667h128c25.6 0 42.667 17.067 42.667 42.667v128c0 25.6 17.067 42.667 42.667 42.667s42.667-17.067 42.667-42.667v-128c0-72.533-55.467-128-128-128zM341.333 21.333h-128c-72.533 0-128 55.467-128 128v128c0 25.6 17.067 42.667 42.667 42.667s42.667-17.067 42.667-42.667v-128c0-25.6 17.067-42.667 42.667-42.667h128c25.6 0 42.667-17.067 42.667-42.667s-17.067-42.667-42.667-42.667zM896 576c-25.6 0-42.667 17.067-42.667 42.667v128c0 25.6-17.067 42.667-42.667 42.667h-128c-25.6 0-42.667 17.067-42.667 42.667s17.067 42.667 42.667 42.667h128c72.533 0 128-55.467 128-128v-128c0-25.6-17.067-42.667-42.667-42.667zM128 576c-25.6 0-42.667 17.067-42.667 42.667v128c0 72.533 55.467 128 128 128h128c25.6 0 42.667-17.067 42.667-42.667s-17.067-42.667-42.667-42.667h-128c-25.6 0-42.667-17.067-42.667-42.667v-128c0-25.6-17.067-42.667-42.667-42.667z" />
<glyph unicode="&#xe95e;" glyph-name="key" data-tags="key" d="M320 21.333c-68.267 0-140.8 25.6-196.267 81.067-110.933 110.933-106.667 290.133 4.267 396.8 98.133 93.867 247.467 102.4 354.133 25.6l384 384c17.067 17.067 42.667 17.067 59.733 0s17.067-42.667 0-59.733l-55.467-59.733 98.133-98.133c17.067-17.067 17.067-42.667 0-59.733l-149.333-149.333c-17.067-17.067-42.667-17.067-59.733 0l-98.133 98.133-115.2-115.2c81.067-106.667 72.533-260.267-25.6-358.4-55.467-59.733-128-85.333-200.533-85.333zM324.267 486.4c-46.933 0-98.133-17.067-132.267-55.467-76.8-72.533-76.8-196.267-4.267-273.067 76.8-76.8 200.533-76.8 273.067 0s72.533 196.267 0 273.067c-42.667 38.4-89.6 55.467-136.533 55.467zM721.067 640l68.267-68.267 89.6 89.6-68.267 68.267-89.6-89.6z" />
<glyph unicode="&#xe95f;" glyph-name="maximize-2" data-tags="maximize-2" d="M938.667 832v-256c0-25.6-17.067-42.667-42.667-42.667s-42.667 17.067-42.667 42.667v153.6l-226.133-226.133c-8.533-8.533-17.067-12.8-29.867-12.8s-21.333 4.267-29.867 12.8c-17.067 17.067-17.067 42.667 0 59.733l226.133 226.133h-153.6c-25.6 0-42.667 17.067-42.667 42.667s17.067 42.667 42.667 42.667h256c25.6 0 42.667-17.067 42.667-42.667zM396.8 392.533l-226.133-226.133v153.6c0 25.6-17.067 42.667-42.667 42.667s-42.667-17.067-42.667-42.667v-256c0-25.6 17.067-42.667 42.667-42.667h256c25.6 0 42.667 17.067 42.667 42.667s-17.067 42.667-42.667 42.667h-153.6l226.133 226.133c17.067 17.067 17.067 42.667 0 59.733s-42.667 17.067-59.733 0z" />
<glyph unicode="&#xe960;" glyph-name="credit" data-tags="credit" d="M347.307 269.653c0-23.564-19.103-42.667-42.667-42.667v0h-80.64c-18.284 5.088-31.477 21.59-31.477 41.173s13.194 36.085 31.177 41.102l0.3 0.071h82.347c21.833-0.847 39.407-17.977 40.952-39.543l0.008-0.137zM402.347 269.653c0-23.564 19.103-42.667 42.667-42.667v0h192c3.355-0.948 7.209-1.493 11.189-1.493 23.564 0 42.667 19.103 42.667 42.667s-19.103 42.667-42.667 42.667c-3.981 0-7.834-0.545-11.489-1.565l0.3 0.071h-192c-0.031 0-0.068 0-0.105 0-22.513 0-40.954-17.437-42.554-39.542l-0.008-0.138zM1005.653 722.347v-548.693c0-60.56-49.093-109.653-109.653-109.653v0h-768c-60.56 0-109.653 49.093-109.653 109.653v0 548.693c0 60.56 49.093 109.653 109.653 109.653v0h768c60.56 0 109.653-49.093 109.653-109.653v0zM923.307 722.347c0 15.081-12.226 27.307-27.307 27.307v0h-768c-15.081 0-27.307-12.226-27.307-27.307v0-548.693c0-15.081 12.226-27.307 27.307-27.307h768c15.081 0 27.307 12.226 27.307 27.307v0z" />
<glyph unicode="&#xe961;" glyph-name="file-code" data-tags="file-code" d="M284.587 78.080c-15.788 0-28.587 12.799-28.587 28.587v0 682.667c0 15.788 12.799 28.587 28.587 28.587v0h284.16v-142.507c0.242-31.392 25.746-56.747 57.172-56.747 0.001 0 0.001 0 0.002 0h142.080v-512c0-15.788-12.799-28.587-28.587-28.587v0zM284.587 903.253c-62.819-0.241-113.679-51.101-113.92-113.897v-682.69c0.241-62.819 51.101-113.679 113.897-113.92h454.85c62.819 0.241 113.679 51.101 113.92 113.897v521.836c0 0.051 0 0.112 0 0.173 0 31.415-12.716 59.86-33.282 80.469l-160.851 160.851c-20.607 20.564-49.052 33.28-80.467 33.28-0.061 0-0.121 0-0.182 0h0.009zM455.253 389.12c3.992 6.372 6.36 14.115 6.36 22.411 0 23.564-19.103 42.667-42.667 42.667-8.187 0-15.835-2.306-22.331-6.304l0.185 0.106-85.333-85.333c-7.668-7.712-12.407-18.343-12.407-30.080s4.74-22.368 12.409-30.082l85.331-85.331c7.192-5.711 16.402-9.162 26.418-9.162 23.564 0 42.667 19.103 42.667 42.667 0 10.123-3.525 19.423-9.415 26.738l0.064-0.082-55.040 56.747 55.040 55.040zM625.92 449.707c-7.872 9.153-19.467 14.914-32.407 14.914-23.564 0-42.667-19.103-42.667-42.667 0-12.94 5.761-24.535 14.858-32.36l0.056-0.047 55.040-55.040-53.333-57.173c-7.795-7.733-12.621-18.45-12.621-30.293s4.826-22.56 12.618-30.291l0.003-0.003c7.712-7.668 18.343-12.407 30.080-12.407s22.368 4.74 30.082 12.409l85.331 85.331c7.795 7.733 12.621 18.45 12.621 30.293s-4.826 22.56-12.618 30.291l-85.336 85.336z" />
<glyph unicode="&#xe962;" glyph-name="file-image" data-tags="file-image" d="M284.587 78.080c-15.788 0-28.587 12.799-28.587 28.587v0 682.667c0 15.788 12.799 28.587 28.587 28.587v0h284.16v-142.507c0.242-31.392 25.746-56.747 57.172-56.747 0.001 0 0.001 0 0.002 0h142.080v-512c0-15.788-12.799-28.587-28.587-28.587v0zM284.587 903.253c-62.819-0.241-113.679-51.101-113.92-113.897v-682.69c0.241-62.819 51.101-113.679 113.897-113.92h454.85c62.819 0.241 113.679 51.101 113.92 113.897v521.836c0 0.051 0 0.112 0 0.173 0 31.415-12.716 59.86-33.282 80.469l-160.851 160.851c-20.607 20.564-49.052 33.28-80.467 33.28-0.061 0-0.121 0-0.182 0h0.009zM455.253 448c0.001 0.127 0.002 0.277 0.002 0.427 0 31.576-25.597 57.173-57.173 57.173s-57.173-25.597-57.173-57.173c0-31.575 25.596-57.172 57.172-57.173v0c0.127-0.001 0.277-0.002 0.427-0.002 31.34 0 56.747 25.406 56.747 56.747 0 0.001 0 0.001 0 0.002v0zM578.133 362.667c-5.25 7.271-13.701 11.948-23.245 11.948-0.078 0-0.156 0-0.233-0.001h0.012c-0.131 0.002-0.285 0.003-0.44 0.003-9.479 0-17.865-4.684-22.968-11.863l-0.059-0.087-73.387-106.24-21.333 33.707c-4.912 8.228-13.769 13.653-23.893 13.653v0c-10.22-0.107-19.161-5.482-24.25-13.534l-0.070-0.119-71.253-111.36c-2.528-4.14-4.024-9.148-4.024-14.507s1.497-10.367 4.094-14.631l-0.070 0.124c4.9-8.716 14.088-14.507 24.629-14.507 0.041 0 0.083 0 0.124 0h341.327c10.887 0.067 20.325 6.209 25.098 15.205l0.075 0.155c2.608 4.189 4.154 9.274 4.154 14.72s-1.546 10.531-4.223 14.84l0.069-0.12-128 184.747z" />
<glyph unicode="&#xe963;" glyph-name="file-pdf" data-tags="file-pdf" d="M284.587 78.080h56.747v-85.333h-56.747c-62.819 0.241-113.679 51.101-113.92 113.897v682.69c0.241 62.819 51.101 113.679 113.897 113.92h293.996c0.051 0 0.112 0 0.173 0 31.415 0 59.86-12.716 80.469-33.282l160.851-160.851c20.564-20.607 33.28-49.052 33.28-80.467 0-0.061 0-0.121 0-0.182v0.009-237.227h-85.333v227.413h-142.080c0 0-0.001 0-0.002 0-31.426 0-56.93 25.355-57.172 56.724v142.53h-284.16c-15.788 0-28.587-12.799-28.587-28.587v0-682.667c0-15.788 12.799-28.587 28.587-28.587v0zM492.373 107.947h-39.68v-78.080c0.077-0.958 0.12-2.074 0.12-3.2 0-8.116-2.266-15.703-6.2-22.162l0.107 0.188c-3.244-5.236-8.87-8.728-15.327-8.959l-0.033-0.001c-0.084-0.001-0.184-0.002-0.284-0.002-6.493 0-12.198 3.373-15.459 8.462l-0.044 0.073c-3.827 6.271-6.093 13.858-6.093 21.974 0 1.126 0.044 2.242 0.129 3.346l-0.009-0.146v213.333c-0.083 1-0.131 2.165-0.131 3.341 0 8.41 2.433 16.252 6.634 22.859l-0.103-0.173c4.824 5.037 11.604 8.167 19.116 8.167 0.63 0 1.255-0.022 1.875-0.065l-0.083 0.005h55.467c1.361 0.060 2.956 0.095 4.56 0.095 11.938 0 23.43-1.908 34.189-5.435l-0.775 0.22c9.062-3.125 16.699-8.424 22.554-15.289l0.059-0.071c6.587-7.453 11.593-16.465 14.392-26.402l0.115-0.478c3.255-10.128 5.13-21.778 5.13-33.867 0-0.544-0.004-1.087-0.011-1.629l0.001 0.082c0.139-1.895 0.218-4.105 0.218-6.333 0-21.906-7.643-42.028-20.408-57.843l0.137 0.176c-14.391-14.547-34.356-23.555-56.425-23.555-1.314 0-2.62 0.032-3.918 0.095l0.183-0.007zM482.133 234.667h-29.44v-85.333h29.44c0.296-0.004 0.646-0.007 0.997-0.007 8.823 0 17.281 1.566 25.11 4.436l-0.507-0.162c6.728 2.528 12.106 7.352 15.286 13.496l0.074 0.157c3.558 6.096 5.658 13.419 5.658 21.233 0 1.086-0.041 2.163-0.12 3.229l0.009-0.142c0.044 0.782 0.069 1.697 0.069 2.618 0 10.145-3.053 19.578-8.289 27.429l0.113-0.181c-8.534 8.361-20.231 13.52-33.134 13.52-1.855 0-3.686-0.107-5.486-0.314l0.219 0.021zM635.733 277.333h56.32c0.419 0.005 0.914 0.008 1.41 0.008 12.905 0 25.335-2.032 36.989-5.792l-0.852 0.238c11.506-3.931 21.18-10.716 28.503-19.524l0.083-0.103c21.336-26.939 34.227-61.414 34.227-98.899 0-4.536-0.189-9.028-0.559-13.469l0.039 0.581c0.001-0.222 0.001-0.486 0.001-0.749 0-15.7-1.241-31.109-3.632-46.136l0.217 1.658c-2.596-14.181-6.143-26.639-10.733-38.58l0.493 1.46c-4.71-11.321-10.887-21.057-18.438-29.545l0.091 0.105c-5.288-6.23-11.489-11.48-18.438-15.603l-0.335-0.184c-6.257-3.864-13.543-6.82-21.315-8.455l-0.445-0.078c-7.538-1.633-16.198-2.568-25.076-2.568-0.484 0-0.968 0.003-1.45 0.008l0.073-0.001h-56.32c-0.596-0.044-1.292-0.069-1.994-0.069-5.928 0-11.44 1.778-16.033 4.829l0.107-0.067c-4.014 3.068-6.816 7.546-7.664 12.683l-0.016 0.117c-1.362 6.131-2.143 13.172-2.143 20.395 0 0.48 0.003 0.959 0.010 1.437l-0.001-0.072v200.96c-0.083 1-0.131 2.165-0.131 3.341 0 8.41 2.433 16.252 6.634 22.859l-0.103-0.173c4.652 5.753 11.71 9.401 19.62 9.401 0.302 0 0.604-0.005 0.904-0.016l-0.043 0.001zM652.373 234.667v-186.88h49.493c4.754 0.53 9.086 1.89 13.002 3.936l-0.202-0.096c4.579 1.996 8.432 4.891 11.483 8.488l0.037 0.045c13.991 19.223 22.384 43.305 22.384 69.347 0 4.278-0.226 8.504-0.668 12.665l0.045-0.518c0.111 2.161 0.175 4.691 0.175 7.237 0 19.34-3.666 37.823-10.341 54.793l0.352-1.017c-4.492 11.252-12.753 20.204-23.191 25.474l-0.276 0.126c-9.209 3.539-19.862 5.588-30.994 5.588-0.954 0-1.904-0.015-2.851-0.045l0.138 0.003zM957.44 234.667h-85.333v-70.4h71.253c0.349 0.023 0.756 0.036 1.167 0.036 5.434 0 10.328-2.308 13.756-5.998l0.011-0.012c3.204-3.82 5.15-8.789 5.15-14.212 0-0.404-0.011-0.805-0.032-1.203l0.002 0.056c0.016-0.31 0.025-0.673 0.025-1.039 0-5.32-1.948-10.186-5.169-13.922l0.023 0.028c-3.343-3.471-8.030-5.627-13.221-5.627-0.603 0-1.199 0.029-1.787 0.086l0.075-0.006h-71.253v-92.587c0.096-1.071 0.15-2.317 0.15-3.576 0-8.137-2.278-15.741-6.23-22.211l0.106 0.187c-3.208-5.154-8.842-8.534-15.265-8.534-0.033 0-0.067 0-0.1 0h0.005c-0.015 0-0.034 0-0.052 0-6.56 0-12.334 3.365-15.691 8.463l-0.044 0.071c-3.846 6.283-6.123 13.887-6.123 22.024 0 1.259 0.055 2.505 0.161 3.736l-0.011-0.16v213.333c-0.012 0.47-0.019 1.024-0.019 1.579 0 6.431 0.942 12.643 2.697 18.503l-0.117-0.456c1.705 4.56 4.846 8.253 8.864 10.614l0.096 0.052c3.959 2.425 8.752 3.861 13.88 3.861 0.371 0 0.739-0.007 1.106-0.022l-0.053 0.002h101.973c0.366 0.024 0.793 0.038 1.224 0.038 5.549 0 10.561-2.303 14.131-6.006l0.006-0.006c3.206-3.979 5.147-9.095 5.147-14.665 0-0.394-0.010-0.787-0.029-1.176l0.002 0.055c0.019-0.343 0.030-0.744 0.030-1.148 0-5.423-1.946-10.392-5.178-14.247l0.028 0.034c-3.346-3.495-8.049-5.667-13.26-5.667-0.74 0-1.47 0.044-2.187 0.129l0.087-0.008z" />
<glyph unicode="&#xe964;" glyph-name="file-thi" data-tags="file-thi" d="M284.587 78.080h56.747v-85.333h-56.747c-62.819 0.241-113.679 51.101-113.92 113.897v682.69c0.241 62.819 51.101 113.679 113.897 113.92h293.996c0.051 0 0.112 0 0.173 0 31.415 0 59.86-12.716 80.469-33.282l160.851-160.851c20.564-20.607 33.28-49.052 33.28-80.467 0-0.061 0-0.121 0-0.182v0.009-237.227h-85.333v227.413h-142.080c0 0-0.001 0-0.002 0-31.426 0-56.93 25.355-57.172 56.724v142.53h-284.16c-15.788 0-28.587-12.799-28.587-28.587v0-682.667c0-15.788 12.799-28.587 28.587-28.587v0zM657.92 227.413h-46.933v-200.107c0.062-0.887 0.097-1.923 0.097-2.967 0-8.334-2.254-16.142-6.186-22.846l0.115 0.213c-3.416-4.901-9.014-8.076-15.355-8.107h-0.005c-0.154-0.005-0.335-0.007-0.517-0.007-6.426 0-12.063 3.383-15.225 8.465l-0.044 0.076c-3.827 6.271-6.093 13.858-6.093 21.974 0 1.126 0.044 2.242 0.129 3.346l-0.009-0.146v200.107h-47.36c-0.407-0.028-0.883-0.044-1.362-0.044-5.987 0-11.399 2.467-15.273 6.439l-0.004 0.004c-3.212 4.28-5.144 9.681-5.144 15.533 0 0.389 0.009 0.776 0.025 1.162l-0.002-0.055c-0.031 0.462-0.049 1.002-0.049 1.547 0 5.918 2.114 11.342 5.628 15.559l-0.032-0.039c3.897 3.718 9.187 6.007 15.011 6.007 0.423 0 0.843-0.012 1.26-0.036l-0.058 0.003h137.387c0.477 0.037 1.034 0.059 1.595 0.059 6.051 0 11.525-2.47 15.469-6.457l0.002-0.002c3.212-4.28 5.144-9.681 5.144-15.533 0-0.389-0.009-0.776-0.025-1.162l0.002 0.055c0.022-0.386 0.035-0.837 0.035-1.292 0-5.86-2.11-11.228-5.611-15.384l0.030 0.036c-3.677-3.994-8.932-6.488-14.768-6.488-0.659 0-1.311 0.032-1.953 0.094l0.082-0.006zM749.653 244.48v-78.933h93.44v78.933c-0.077 0.958-0.12 2.074-0.12 3.2 0 8.116 2.266 15.703 6.2 22.162l-0.107-0.188c3.208 5.154 8.842 8.534 15.265 8.534 0.033 0 0.067 0 0.1 0h-0.005c0.154 0.005 0.335 0.007 0.517 0.007 6.426 0 12.063-3.383 15.225-8.465l0.044-0.076c3.827-6.271 6.093-13.858 6.093-21.974 0-1.126-0.044-2.242-0.129-3.346l0.009 0.146v-217.173c0.077-0.958 0.12-2.074 0.12-3.2 0-8.116-2.266-15.703-6.2-22.162l0.107 0.188c-3.207-5.158-8.843-8.541-15.269-8.541-0.182 0-0.363 0.003-0.544 0.008l0.026-0.001c-0.171-0.006-0.372-0.010-0.574-0.010-6.288 0-11.781 3.4-14.742 8.462l-0.044 0.081c-3.827 6.271-6.093 13.858-6.093 21.974 0 1.126 0.044 2.242 0.129 3.346l-0.009-0.146v92.587h-93.44v-92.587c0.049-0.769 0.078-1.667 0.078-2.573 0-8.375-2.413-16.186-6.581-22.776l0.103 0.175c-3.005-5.143-8.498-8.543-14.786-8.543-0.202 0-0.403 0.004-0.603 0.010l0.029-0.001c-0.225-0.010-0.488-0.016-0.753-0.016-6.361 0-11.928 3.395-14.99 8.471l-0.044 0.079c-3.827 6.271-6.093 13.858-6.093 21.974 0 1.126 0.044 2.242 0.129 3.346l-0.009-0.146v217.173c-0.077 0.958-0.12 2.074-0.12 3.2 0 8.116 2.266 15.703 6.2 22.162l-0.107-0.188c3.393 5.214 9.193 8.614 15.787 8.614s12.394-3.399 15.742-8.541l0.044-0.072c3.827-6.271 6.093-13.858 6.093-21.974 0-1.126-0.044-2.242-0.129-3.346l0.009 0.146zM934.827 27.307v217.173c-0.077 0.958-0.12 2.074-0.12 3.2 0 8.116 2.266 15.703 6.2 22.162l-0.107-0.188c3.208 5.154 8.842 8.534 15.265 8.534 0.033 0 0.067 0 0.1 0h-0.005c0.084 0.001 0.184 0.002 0.284 0.002 6.493 0 12.198-3.373 15.459-8.462l0.044-0.073c3.827-6.271 6.093-13.858 6.093-21.974 0-1.126-0.044-2.242-0.129-3.346l0.009 0.146v-217.173c0.077-0.958 0.12-2.074 0.12-3.2 0-8.116-2.266-15.703-6.2-22.162l0.107 0.188c-3.305-5.163-9.010-8.536-15.503-8.536-0.1 0-0.199 0.001-0.299 0.002h0.015c-0.171-0.006-0.372-0.010-0.574-0.010-6.288 0-11.781 3.4-14.742 8.462l-0.044 0.081c-3.827 6.271-6.093 13.858-6.093 21.974 0 1.126 0.044 2.242 0.129 3.346l-0.009-0.146z" />
<glyph unicode="&#xe965;" glyph-name="file-txt" data-tags="file-txt" d="M820.053 709.12l-160.853 160.853c-20.607 20.564-49.052 33.28-80.467 33.28-0.061 0-0.121 0-0.182 0h-293.964c-62.819-0.241-113.679-51.101-113.92-113.897v-682.69c0.241-62.819 51.101-113.679 113.897-113.92h454.85c62.819 0.241 113.679 51.101 113.92 113.897v521.836c0 0.051 0 0.112 0 0.173 0 31.415-12.716 59.86-33.282 80.469l0.002-0.002zM768 106.667c0-15.788-12.799-28.587-28.587-28.587v0h-454.827c-15.788 0-28.587 12.799-28.587 28.587v0 682.667c0 15.788 12.799 28.587 28.587 28.587v0h284.16v-142.507c0.242-31.392 25.746-56.747 57.172-56.747 0.001 0 0.001 0 0.002 0h142.080zM653.653 139.947h-283.307c-23.564 0-42.667 19.103-42.667 42.667s19.103 42.667 42.667 42.667v0h283.307c23.564 0 42.667-19.103 42.667-42.667s-19.103-42.667-42.667-42.667v0zM653.653 297.813h-283.307c-23.564 0-42.667 19.103-42.667 42.667s19.103 42.667 42.667 42.667v0h283.307c23.564 0 42.667-19.103 42.667-42.667s-19.103-42.667-42.667-42.667v0z" />
<glyph unicode="&#xe966;" glyph-name="file-zip" data-tags="file-zip" d="M284.587 78.080c-15.788 0-28.587 12.799-28.587 28.587v0 682.667c0 15.788 12.799 28.587 28.587 28.587v0h85.333c0-0.001 0-0.002 0-0.003 0-15.638 12.557-28.343 28.137-28.583h57.196c15.603 0.24 28.16 12.946 28.16 28.583 0 0.001 0 0.002 0 0.003v0h85.333v-142.507c0.242-31.392 25.746-56.747 57.172-56.747 0.001 0 0.001 0 0.002 0h142.080v-512c0-15.788-12.799-28.587-28.587-28.587v0zM284.587 903.253c-62.819-0.241-113.679-51.101-113.92-113.897v-682.69c0.241-62.819 51.101-113.679 113.897-113.92h454.85c62.819 0.241 113.679 51.101 113.92 113.897v521.836c0 0.051 0 0.112 0 0.173 0 31.415-12.716 59.86-33.282 80.469l-160.851 160.851c-20.607 20.564-49.052 33.28-80.467 33.28-0.061 0-0.121 0-0.182 0h0.009zM369.92 704c0-0.001 0-0.002 0-0.003 0-15.638 12.557-28.343 28.137-28.583h57.196c15.788 0 28.587 12.799 28.587 28.587s-12.799 28.587-28.587 28.587h-57.173c-15.603-0.24-28.16-12.946-28.16-28.583 0-0.001 0-0.002 0-0.003v0zM369.92 590.080c0.236-15.456 12.704-27.924 28.138-28.16h57.195c14.217 1.797 25.101 13.814 25.101 28.373s-10.884 26.576-24.96 28.359l-0.141 0.015h-57.173c-15.603-0.24-28.16-12.946-28.16-28.583 0-0.001 0-0.002 0-0.003v0zM358.4 462.080l-42.667-156.587c-2.438-8.66-3.84-18.606-3.84-28.878 0-0.047 0-0.095 0-0.142v0.007c0-62.916 51.004-113.92 113.92-113.92s113.92 51.004 113.92 113.92v0c0 0.040 0 0.088 0 0.135 0 10.273-1.402 20.218-4.024 29.655l0.184-0.777-42.667 157.013c-6.488 24.724-28.635 42.667-54.972 42.667-0.024 0-0.048 0-0.072 0h-24.743c-26.259-0.278-48.284-18.086-54.945-42.262l-0.095-0.404zM398.080 305.493h57.173c15.788 0 28.587-12.799 28.587-28.587s-12.799-28.587-28.587-28.587h-57.173c-15.788 0-28.587 12.799-28.587 28.587s12.799 28.587 28.587 28.587v0z" />
<glyph unicode="&#xe967;" glyph-name="leaderboard" data-tags="leaderboard" d="M512-0.853c-0.127 0-0.276 0-0.426 0-162.121 0-293.547 131.425-293.547 293.547s131.425 293.547 293.547 293.547c162.121 0 293.547-131.425 293.547-293.547 0-0.15 0-0.3 0-0.45v0.023c-0.242-161.788-131.332-292.878-293.097-293.12h-0.023zM512 500.48c-0.127 0-0.277 0-0.427 0-114.993 0-208.213-93.22-208.213-208.213s93.22-208.213 208.213-208.213c114.993 0 208.213 93.22 208.213 208.213v0c0 0 0 0 0 0 0 114.843-92.977 207.97-207.763 208.213h-0.023zM432.213 156.587c-0.085-0.002-0.185-0.003-0.286-0.003-2.803 0-5.381 0.966-7.419 2.582l0.025-0.019c-3.274 2.259-5.393 5.99-5.393 10.216 0 0.915 0.099 1.807 0.288 2.666l-0.015-0.082 14.080 82.347-59.733 58.027c-2.555 2.204-4.163 5.445-4.163 9.063 0 1.495 0.275 2.927 0.777 4.246l-0.027-0.082c1.434 4.672 5.346 8.157 10.166 8.95l0.074 0.010 82.773 11.947 37.12 75.093c2.314 4.046 6.604 6.728 11.52 6.728s9.206-2.682 11.486-6.663l0.034-0.065 37.12-75.093 82.773-11.947c4.894-0.803 8.806-4.288 10.216-8.869l0.024-0.091c0.474-1.237 0.749-2.669 0.749-4.164 0-3.617-1.608-6.859-4.147-9.050l-0.015-0.013-59.733-58.027 14.080-82.347c0.173-0.777 0.273-1.669 0.273-2.584 0-4.226-2.118-7.957-5.351-10.189l-0.041-0.027c-1.921-1.287-4.284-2.054-6.827-2.054s-4.906 0.767-6.872 2.082l0.045-0.028-73.813 37.973-73.813-38.827c-1.738-0.857-3.759-1.461-5.89-1.699l-0.083-0.008zM810.667 584.533l163.413 247.467c4.291 6.544 6.844 14.563 6.844 23.178 0 7.116-1.742 13.825-4.823 19.724l0.112-0.236c-7.394 13.321-21.377 22.187-37.43 22.187-0.041 0-0.082 0-0.123 0h-200.954c-14.98-0.026-28.146-7.767-35.739-19.461l-0.101-0.166-114.773-177.493c-3.318-5.928-5.272-13.008-5.272-20.544 0-23.564 19.103-42.667 42.667-42.667 13.751 0 25.982 6.505 33.785 16.605l0.073 0.099 102.4 158.293h98.133l-119.893-179.627c-4.507-6.66-7.195-14.872-7.195-23.711 0-14.803 7.539-27.846 18.987-35.498l0.155-0.098c6.589-4.482 14.706-7.183 23.449-7.253h0.018c0.187-0.003 0.408-0.005 0.63-0.005 14.83 0 27.893 7.566 35.539 19.048l0.098 0.156zM273.067 572.587c11.603 7.749 19.142 20.792 19.142 35.595 0 8.839-2.688 17.051-7.291 23.862l0.096-0.151-119.893 179.627h98.133l102.4-158.293c7.403-13.285 21.367-22.123 37.395-22.123 23.564 0 42.667 19.103 42.667 42.667 0 9.813-3.313 18.853-8.882 26.061l0.073-0.099-114.773 177.493c-7.694 11.86-20.86 19.601-35.836 19.627h-200.964c-0.035 0-0.076 0-0.116 0-16.054 0-30.037-8.866-37.319-21.969l-0.111-0.218c-3.594-6.12-5.716-13.479-5.716-21.333s2.123-15.214 5.825-21.535l-0.109 0.201 165.547-247.467c7.705-11.576 20.669-19.121 35.401-19.2h0.012c0.154-0.002 0.335-0.003 0.517-0.003 8.878 0 17.123 2.712 23.951 7.352l-0.149-0.095z" />
</font>
</defs>
</svg>
